{
 "cells": [
  {
   "cell_type": "code",
   "execution_count": 116,
   "id": "f3842f91",
   "metadata": {},
   "outputs": [],
   "source": [
    "from typing import List, Tuple\n",
    "from datetime import timedelta\n",
    "import pysrt\n",
    "import pandas as pd\n",
    "\n",
    "from collections import Counter\n",
    "\n",
    "import random\n",
    "from datetime import timedelta\n",
    "\n",
    "import subprocess\n",
    "import os\n",
    "from datetime import timedelta\n",
    "\n",
    "from transformers import pipeline\n",
    "\n",
    "from moviepy import VideoFileClip, concatenate_videoclips\n",
    "import os\n",
    "\n",
    "import warnings\n",
    "warnings.filterwarnings(\"ignore\")"
   ]
  },
  {
   "cell_type": "code",
   "execution_count": 117,
   "id": "27b7c181",
   "metadata": {},
   "outputs": [],
   "source": [
    "genre_dict = \\\n",
    "    {\n",
    "        \"drama\": {\n",
    "            \"setup_conflict\": {\n",
    "                \"description\": \"Установление основного конфликта\",\n",
    "                \"start_percent\": 5.0,\n",
    "                \"end_percent\": 15.0\n",
    "            },\n",
    "            \"character_development\": {\n",
    "                \"description\": \"Эмоциональное развитие персонажа\",\n",
    "                \"start_percent\": 20.0,\n",
    "                \"end_percent\": 40.0\n",
    "            },\n",
    "            \"plot_twist\": {\n",
    "                \"description\": \"Поворот сюжета или неожиданное развитие\",\n",
    "                \"start_percent\": 50.0,\n",
    "                \"end_percent\": 60.0\n",
    "            },\n",
    "            \"climax_confrontation\": {\n",
    "                \"description\": \"Главный конфликт между героями\",\n",
    "                \"start_percent\": 60.0,\n",
    "                \"end_percent\": 75.0\n",
    "            },\n",
    "            \"partial_resolution\": {\n",
    "                \"description\": \"Частичное разрешение, но с продолжением\",\n",
    "                \"start_percent\": 80.0,\n",
    "                \"end_percent\": 90.0\n",
    "            },\n",
    "            \"cliffhanger\": {\n",
    "                \"description\": \"Неожиданный поворот или намёк на следующую серию\",\n",
    "                \"start_percent\": 95.0,\n",
    "                \"end_percent\": 100.0\n",
    "            }\n",
    "        },\n",
    "\n",
    "        \"crime\": {\n",
    "            \"crime_discovery\": {\n",
    "                \"description\": \"Обнаружение преступления или загадка\",\n",
    "                \"start_percent\": 0.0,\n",
    "                \"end_percent\": 10.0\n",
    "            },\n",
    "            \"gathering_clues\": {\n",
    "                \"description\": \"Расследование, сбор улик\",\n",
    "                \"start_percent\": 15.0,\n",
    "                \"end_percent\": 35.0\n",
    "            },\n",
    "            \"false_lead\": {\n",
    "                \"description\": \"Ложный след или неправильная версия\",\n",
    "                \"start_percent\": 35.0,\n",
    "                \"end_percent\": 50.0\n",
    "            },\n",
    "            \"truth_revealed\": {\n",
    "                \"description\": \"Открытие истинного преступника или причины\",\n",
    "                \"start_percent\": 60.0,\n",
    "                \"end_percent\": 75.0\n",
    "            },\n",
    "            \"resolution\": {\n",
    "                \"description\": \"Завершение дела или арест\",\n",
    "                \"start_percent\": 80.0,\n",
    "                \"end_percent\": 90.0\n",
    "            },\n",
    "            \"emotional_ending\": {\n",
    "                \"description\": \"Реакция главных героев или намёк на будущее\",\n",
    "                \"start_percent\": 90.0,\n",
    "                \"end_percent\": 100.0\n",
    "            }\n",
    "        },\n",
    "\n",
    "        \"fantasy\": {\n",
    "            \"quest_announced\": {\n",
    "                \"description\": \"Объявление цели или миссии\",\n",
    "                \"start_percent\": 0.0,\n",
    "                \"end_percent\": 10.0\n",
    "            },\n",
    "            \"trials\": {\n",
    "                \"description\": \"Пройденные испытания или битвы\",\n",
    "                \"start_percent\": 10.0,\n",
    "                \"end_percent\": 50.0\n",
    "            },\n",
    "            \"betrayal_or_failure\": {\n",
    "                \"description\": \"Предательство или крупная потеря\",\n",
    "                \"start_percent\": 50.0,\n",
    "                \"end_percent\": 65.0\n",
    "            },\n",
    "            \"power_or_knowledge_gained\": {\n",
    "                \"description\": \"Герои получают силу или знание для победы\",\n",
    "                \"start_percent\": 65.0,\n",
    "                \"end_percent\": 80.0\n",
    "            },\n",
    "            \"final_battle\": {\n",
    "                \"description\": \"Финальная битва с главным злом\",\n",
    "                \"start_percent\": 80.0,\n",
    "                \"end_percent\": 95.0\n",
    "            },\n",
    "            \"new_horizon\": {\n",
    "                \"description\": \"Намёк на новое приключение или путь\",\n",
    "                \"start_percent\": 95.0,\n",
    "                \"end_percent\": 100.0\n",
    "            }\n",
    "        },\n",
    "\n",
    "        \"comedy\": {\n",
    "            \"funny_situation_introduced\": {\n",
    "                \"description\": \"Введение забавной ситуации\",\n",
    "                \"start_percent\": 0.0,\n",
    "                \"end_percent\": 10.0\n",
    "            },\n",
    "            \"absurdity_increases\": {\n",
    "                \"description\": \"Усиление абсурда или ошибок\",\n",
    "                \"start_percent\": 10.0,\n",
    "                \"end_percent\": 30.0\n",
    "            },\n",
    "            \"peak_of_humor\": {\n",
    "                \"description\": \"Максимальный юмор, точка кульминации\",\n",
    "                \"start_percent\": 30.0,\n",
    "                \"end_percent\": 50.0\n",
    "            },\n",
    "            \"attempt_to_fix\": {\n",
    "                \"description\": \"Попытка исправить ситуацию\",\n",
    "                \"start_percent\": 50.0,\n",
    "                \"end_percent\": 70.0\n",
    "            },\n",
    "            \"unexpected_result\": {\n",
    "                \"description\": \"Неожиданный смешной результат\",\n",
    "                \"start_percent\": 70.0,\n",
    "                \"end_percent\": 90.0\n",
    "            },\n",
    "            \"ironic_conclusion\": {\n",
    "                \"description\": \"Шутка на прощание или клиффхенгер\",\n",
    "                \"start_percent\": 90.0,\n",
    "                \"end_percent\": 100.0\n",
    "            }\n",
    "        },\n",
    "\n",
    "        \"sci-fi\": {\n",
    "            \"technology_introduced\": {\n",
    "                \"description\": \"Введение нового явления или технологии\",\n",
    "                \"start_percent\": 0.0,\n",
    "                \"end_percent\": 10.0\n",
    "            },\n",
    "            \"consequences_explored\": {\n",
    "                \"description\": \"Изучение последствий использования\",\n",
    "                \"start_percent\": 10.0,\n",
    "                \"end_percent\": 40.0\n",
    "            },\n",
    "            \"ethical_dilemma\": {\n",
    "                \"description\": \"Моральный выбор или риск\",\n",
    "                \"start_percent\": 40.0,\n",
    "                \"end_percent\": 60.0\n",
    "            },\n",
    "            \"crisis_occurs\": {\n",
    "                \"description\": \"Происходит кризис или угроза\",\n",
    "                \"start_percent\": 60.0,\n",
    "                \"end_percent\": 80.0\n",
    "            },\n",
    "            \"solution_found\": {\n",
    "                \"description\": \"Находится решение или новое понимание\",\n",
    "                \"start_percent\": 80.0,\n",
    "                \"end_percent\": 95.0\n",
    "            },\n",
    "            \"philosophical_note\": {\n",
    "                \"description\": \"Философский вывод или вопрос\",\n",
    "                \"start_percent\": 95.0,\n",
    "                \"end_percent\": 100.0\n",
    "            }\n",
    "        },\n",
    "\n",
    "        \"horror\": {\n",
    "            \"atmosphere_set\": {\n",
    "                \"description\": \"Создание атмосферы страха\",\n",
    "                \"start_percent\": 0.0,\n",
    "                \"end_percent\": 10.0\n",
    "            },\n",
    "            \"first_fear\": {\n",
    "                \"description\": \"Первый страх или сигнал опасности\",\n",
    "                \"start_percent\": 10.0,\n",
    "                \"end_percent\": 25.0\n",
    "            },\n",
    "            \"tension_builds\": {\n",
    "                \"description\": \"Наращивание напряжения\",\n",
    "                \"start_percent\": 25.0,\n",
    "                \"end_percent\": 50.0\n",
    "            },\n",
    "            \"main_horror_moment\": {\n",
    "                \"description\": \"Главный момент ужаса или жертва\",\n",
    "                \"start_percent\": 50.0,\n",
    "                \"end_percent\": 70.0\n",
    "            },\n",
    "            \"escape_or_chase\": {\n",
    "                \"description\": \"Погоня или попытка спастись\",\n",
    "                \"start_percent\": 70.0,\n",
    "                \"end_percent\": 85.0\n",
    "            },\n",
    "            \"unresolved_end\": {\n",
    "                \"description\": \"Неожиданный финал или намёк на продолжение\",\n",
    "                \"start_percent\": 85.0,\n",
    "                \"end_percent\": 100.0\n",
    "            }\n",
    "        },\n",
    "        \"default\": {\n",
    "            \"setup\": {\n",
    "                \"description\": \"Введение основного конфликта или ситуации\",\n",
    "                \"start_percent\": 5.0,\n",
    "                \"end_percent\": 15.0\n",
    "            },\n",
    "            \"development\": {\n",
    "                \"description\": \"Развитие событий, углубление в сюжет\",\n",
    "                \"start_percent\": 20.0,\n",
    "                \"end_percent\": 45.0\n",
    "            },\n",
    "            \"plot_twist\": {\n",
    "                \"description\": \"Неожиданный поворот или осложнение\",\n",
    "                \"start_percent\": 50.0,\n",
    "                \"end_percent\": 65.0\n",
    "            },\n",
    "            \"climax\": {\n",
    "                \"description\": \"Кульминационный момент действия\",\n",
    "                \"start_percent\": 70.0,\n",
    "                \"end_percent\": 85.0\n",
    "            },\n",
    "            \"cliffhanger\": {\n",
    "                \"description\": \"Финальный намёк на следующую серию\",\n",
    "                \"start_percent\": 90.0,\n",
    "                \"end_percent\": 100.0\n",
    "            }\n",
    "        }\n",
    "\n",
    "    }"
   ]
  },
  {
   "cell_type": "code",
   "execution_count": 118,
   "id": "e78f32ba",
   "metadata": {},
   "outputs": [],
   "source": [
    "UNIFIED_KEY_MOMENTS = {\n",
    "    \"setup\": {\n",
    "        \"description\": \"Введение основной ситуации или конфликта\"\n",
    "    },\n",
    "    \"development\": {\n",
    "        \"description\": \"Развитие сюжета, углубление в историю\"\n",
    "    },\n",
    "    \"twist\": {\n",
    "        \"description\": \"Неожиданный поворот или осложнение\"\n",
    "    },\n",
    "    \"climax\": {\n",
    "        \"description\": \"Кульминационный момент\"\n",
    "    },\n",
    "    \"resolution\": {\n",
    "        \"description\": \"Разрешение или намёк на продолжение\"\n",
    "    },\n",
    "    \"cliffhanger\": {\n",
    "        \"description\": \"Финальное событие или клиффхенгер\"\n",
    "    }\n",
    "}"
   ]
  },
  {
   "cell_type": "code",
   "execution_count": 119,
   "id": "eba03ab8",
   "metadata": {},
   "outputs": [],
   "source": [
    "def unify_moments(genre_data):\n",
    "    mapping = {\n",
    "        \"setup\": None,\n",
    "        \"development\": None,\n",
    "        \"twist\": None,\n",
    "        \"climax\": None,\n",
    "        \"resolution\": None,\n",
    "        \"cliffhanger\": None\n",
    "    }\n",
    "\n",
    "    # Попытка найти соответствующее поле в жанре\n",
    "    for key in genre_data:\n",
    "        if \"setup\" in key or \"introduced\" in key or \"discovery\" in key or \"announced\" in key:\n",
    "            mapping[\"setup\"] = key\n",
    "        elif \"develop\" in key or \"trial\" in key or \"consequence\" in key or \"gathering\" in key:\n",
    "            mapping[\"development\"] = key\n",
    "        elif \"twist\" in key or \"false\" in key or \"betrayal\" in key or \"ethical\" in key:\n",
    "            mapping[\"twist\"] = key\n",
    "        elif \"climax\" in key or \"battle\" in key or \"final\" in key or \"truth\" in key:\n",
    "            mapping[\"climax\"] = key\n",
    "        elif \"resolution\" in key or \"ending\" in key or \"solution\" in key or \"conclusion\" in key:\n",
    "            mapping[\"resolution\"] = key\n",
    "        elif \"cliffhanger\" in key or \"new\" in key or \"hint\" in key or \"philosophical\" in key:\n",
    "            mapping[\"cliffhanger\"] = key\n",
    "\n",
    "    return mapping"
   ]
  },
  {
   "cell_type": "code",
   "execution_count": 120,
   "id": "a79d9ac4",
   "metadata": {},
   "outputs": [],
   "source": [
    "# # Получаем маппинг для жанра \"fantasy\"\n",
    "# mapping = unify_moments(genre_dict[\"fantasy\"])\n",
    "\n",
    "# # Теперь можем получать унифицированные временные метки\n",
    "# unified = {}\n",
    "# for uk, genre_key in mapping.items():\n",
    "#     if genre_key:\n",
    "#         unified[uk] = genre_dict[\"fantasy\"][genre_key]\n",
    "#     else:\n",
    "#         unified[uk] = None\n"
   ]
  },
  {
   "cell_type": "code",
   "execution_count": 121,
   "id": "f115c401",
   "metadata": {},
   "outputs": [],
   "source": [
    "# def generate_recap(genre, total_seconds):\n",
    "#     unified_moments = {}\n",
    "\n",
    "#     # Выбираем жанр или default\n",
    "#     genre_data = genre_dict.get(genre.lower(), genre_dict[\"default\"])\n",
    "#     mapping = unify_moments(genre_data)\n",
    "\n",
    "#     for unified_key, genre_key in mapping.items():\n",
    "#         if genre_key:\n",
    "#             event = genre_data[genre_key]\n",
    "#             start_time = round(total_seconds * event[\"start_percent\"] / 100)\n",
    "#             end_time = round(total_seconds * event[\"end_percent\"] / 100)\n",
    "#             unified_moments[unified_key] = {\n",
    "#                 \"description\": event[\"description\"],\n",
    "#                 \"start\": str(timedelta(seconds=start_time)),\n",
    "#                 \"end\": str(timedelta(seconds=end_time))\n",
    "#             }\n",
    "#         else:\n",
    "#             unified_moments[unified_key] = None\n",
    "\n",
    "#     return unified_moments"
   ]
  },
  {
   "cell_type": "code",
   "execution_count": 138,
   "id": "13f39f81",
   "metadata": {},
   "outputs": [],
   "source": [
    "\n",
    "def generate_recap(genre, total_seconds, chunk_duration=20):\n",
    "    def time_to_seconds(time_str):\n",
    "        h, m, s = map(int, time_str.split(':'))\n",
    "        return h * 3600 + m * 60 + s\n",
    "\n",
    "    def seconds_to_time(seconds):\n",
    "        return str(timedelta(seconds=seconds))\n",
    "\n",
    "    unified_moments = {}\n",
    "\n",
    "    # Выбираем жанр или default\n",
    "    genre_data = genre_dict.get(genre.lower(), genre_dict[\"default\"])\n",
    "    mapping = unify_moments(genre_data)\n",
    "\n",
    "    for unified_key, genre_key in mapping.items():\n",
    "        if genre_key:\n",
    "            event = genre_data[genre_key]\n",
    "            start_time = round(total_seconds * event[\"start_percent\"] / 100)\n",
    "            end_time = round(total_seconds * event[\"end_percent\"] / 100)\n",
    "\n",
    "            # Преобразуем время в строку hh:mm:ss\n",
    "            start_time_str = seconds_to_time(start_time)\n",
    "            end_time_str = seconds_to_time(end_time)\n",
    "\n",
    "            # Генерируем случайный chunk_duration-секундный клип внутри этого интервала\n",
    "            clip_start_sec = None\n",
    "            clip_end_sec = None\n",
    "\n",
    "            if end_time - start_time >= chunk_duration:\n",
    "                clip_start_sec = random.randint(start_time, end_time - chunk_duration)\n",
    "                clip_end_sec = clip_start_sec + chunk_duration\n",
    "\n",
    "            unified_moments[unified_key] = {\n",
    "                \"description\": event[\"description\"],\n",
    "                \"start\": start_time_str,\n",
    "                \"end\": end_time_str,\n",
    "                \"clip_start\": seconds_to_time(clip_start_sec) if clip_start_sec is not None else None,\n",
    "                \"clip_end\": seconds_to_time(clip_end_sec) if clip_end_sec is not None else None,\n",
    "            }\n",
    "        else:\n",
    "            unified_moments[unified_key] = None\n",
    "\n",
    "    return unified_moments"
   ]
  },
  {
   "cell_type": "code",
   "execution_count": 139,
   "id": "75263521",
   "metadata": {},
   "outputs": [],
   "source": [
    "file_name = \"15716_2_7\""
   ]
  },
  {
   "cell_type": "code",
   "execution_count": 140,
   "id": "b4a9a08c",
   "metadata": {},
   "outputs": [
    {
     "data": {
      "application/vnd.microsoft.datawrangler.viewer.v0+json": {
       "columns": [
        {
         "name": "index",
         "rawType": "int64",
         "type": "integer"
        },
        {
         "name": "index",
         "rawType": "int64",
         "type": "integer"
        },
        {
         "name": "start",
         "rawType": "object",
         "type": "unknown"
        },
        {
         "name": "end",
         "rawType": "object",
         "type": "unknown"
        },
        {
         "name": "text",
         "rawType": "object",
         "type": "string"
        }
       ],
       "conversionMethod": "pd.DataFrame",
       "ref": "34f3ecca-c97a-4abd-8821-de5d3ae62762",
       "rows": [
        [
         "0",
         "1",
         "00:00:20.615000",
         "00:00:22.780000",
         "Дом, милый дом. Дай-ка ствол."
        ],
        [
         "1",
         "2",
         "00:00:25.598000",
         "00:00:26.756000",
         "Пойдём."
        ],
        [
         "2",
         "3",
         "00:00:28.139000",
         "00:00:29.720000",
         "Пойдём, пойдём,\nпроверить надо кое-чего."
        ],
        [
         "3",
         "4",
         "00:00:45.598000",
         "00:00:46.823000",
         "Ни фига себе!"
        ],
        [
         "4",
         "5",
         "00:00:53.035000",
         "00:00:55.583000",
         "Телефон ставь и снимай давай."
        ]
       ],
       "shape": {
        "columns": 4,
        "rows": 5
       }
      },
      "text/html": [
       "<div>\n",
       "<style scoped>\n",
       "    .dataframe tbody tr th:only-of-type {\n",
       "        vertical-align: middle;\n",
       "    }\n",
       "\n",
       "    .dataframe tbody tr th {\n",
       "        vertical-align: top;\n",
       "    }\n",
       "\n",
       "    .dataframe thead th {\n",
       "        text-align: right;\n",
       "    }\n",
       "</style>\n",
       "<table border=\"1\" class=\"dataframe\">\n",
       "  <thead>\n",
       "    <tr style=\"text-align: right;\">\n",
       "      <th></th>\n",
       "      <th>index</th>\n",
       "      <th>start</th>\n",
       "      <th>end</th>\n",
       "      <th>text</th>\n",
       "    </tr>\n",
       "  </thead>\n",
       "  <tbody>\n",
       "    <tr>\n",
       "      <th>0</th>\n",
       "      <td>1</td>\n",
       "      <td>00:00:20.615000</td>\n",
       "      <td>00:00:22.780000</td>\n",
       "      <td>Дом, милый дом. Дай-ка ствол.</td>\n",
       "    </tr>\n",
       "    <tr>\n",
       "      <th>1</th>\n",
       "      <td>2</td>\n",
       "      <td>00:00:25.598000</td>\n",
       "      <td>00:00:26.756000</td>\n",
       "      <td>Пойдём.</td>\n",
       "    </tr>\n",
       "    <tr>\n",
       "      <th>2</th>\n",
       "      <td>3</td>\n",
       "      <td>00:00:28.139000</td>\n",
       "      <td>00:00:29.720000</td>\n",
       "      <td>Пойдём, пойдём,\\nпроверить надо кое-чего.</td>\n",
       "    </tr>\n",
       "    <tr>\n",
       "      <th>3</th>\n",
       "      <td>4</td>\n",
       "      <td>00:00:45.598000</td>\n",
       "      <td>00:00:46.823000</td>\n",
       "      <td>Ни фига себе!</td>\n",
       "    </tr>\n",
       "    <tr>\n",
       "      <th>4</th>\n",
       "      <td>5</td>\n",
       "      <td>00:00:53.035000</td>\n",
       "      <td>00:00:55.583000</td>\n",
       "      <td>Телефон ставь и снимай давай.</td>\n",
       "    </tr>\n",
       "  </tbody>\n",
       "</table>\n",
       "</div>"
      ],
      "text/plain": [
       "   index            start              end  \\\n",
       "0      1  00:00:20.615000  00:00:22.780000   \n",
       "1      2  00:00:25.598000  00:00:26.756000   \n",
       "2      3  00:00:28.139000  00:00:29.720000   \n",
       "3      4  00:00:45.598000  00:00:46.823000   \n",
       "4      5  00:00:53.035000  00:00:55.583000   \n",
       "\n",
       "                                        text  \n",
       "0              Дом, милый дом. Дай-ка ствол.  \n",
       "1                                    Пойдём.  \n",
       "2  Пойдём, пойдём,\\nпроверить надо кое-чего.  \n",
       "3                              Ни фига себе!  \n",
       "4              Телефон ставь и снимай давай.  "
      ]
     },
     "execution_count": 140,
     "metadata": {},
     "output_type": "execute_result"
    }
   ],
   "source": [
    "subs = pysrt.open(f'./data/subtitles/{file_name}.srt')\n",
    "data = []\n",
    "for sub in subs:\n",
    "    data.append({\n",
    "        'index': sub.index,\n",
    "        'start': sub.start.to_time(),\n",
    "        'end': sub.end.to_time(),\n",
    "        'text': sub.text\n",
    "    })\n",
    "\n",
    "# Создаём DataFrame\n",
    "df = pd.DataFrame(data)\n",
    "\n",
    "\n",
    "df.head()"
   ]
  },
  {
   "cell_type": "code",
   "execution_count": 141,
   "id": "48f0fc3a",
   "metadata": {},
   "outputs": [],
   "source": [
    "subtitle_texts = df[\"text\"].tolist()\n",
    "subtitle_texts\n",
    "results = subtitle_texts[:100]"
   ]
  },
  {
   "cell_type": "code",
   "execution_count": 142,
   "id": "0fec889f",
   "metadata": {},
   "outputs": [],
   "source": [
    "# from transformers import pipeline\n",
    "\n",
    "# # Указываем `framework=\"pt\"` чтобы принудительно использовать PyTorch\n",
    "# classifier = pipeline(\"text-classification\", model=\"joeddav/distilbert-base-uncased-go-emotions-student\", framework=\"pt\")\n",
    "\n",
    "# subtitle_texts = df[\"text\"].tolist()\n",
    "# results = classifier(subtitle_texts[:5])  # например, первые 5 фрагментов\n",
    "# print(results)"
   ]
  },
  {
   "cell_type": "code",
   "execution_count": 143,
   "id": "fd805f4d",
   "metadata": {},
   "outputs": [
    {
     "name": "stderr",
     "output_type": "stream",
     "text": [
      "Device set to use mps:0\n"
     ]
    }
   ],
   "source": [
    "classifier = pipeline(\n",
    "    \"text-classification\",\n",
    "    model=\"handler-bird/movie_genre_multi_classification\",\n",
    "    tokenizer=\"distilbert-base-uncased\",\n",
    "    framework=\"pt\"\n",
    ")\n",
    "result = classifier(results)"
   ]
  },
  {
   "cell_type": "code",
   "execution_count": 144,
   "id": "920a1594",
   "metadata": {},
   "outputs": [
    {
     "name": "stdout",
     "output_type": "stream",
     "text": [
      "{0: 'drama', 1: 'thriller', 2: 'adult', 3: 'documentary', 4: 'comedy', 5: 'crime', 6: 'reality-tv', 7: 'horror', 8: 'sport', 9: 'animation', 10: 'action', 11: 'fantasy', 12: 'short', 13: 'sci-fi', 14: 'music', 15: 'adventure', 16: 'talk-show', 17: 'western', 18: 'family', 19: 'mystery', 20: 'history', 21: 'news', 22: 'biography', 23: 'romance', 24: 'game-show', 25: 'musical', 26: 'war'}\n"
     ]
    }
   ],
   "source": [
    "print(classifier.model.config.id2label)"
   ]
  },
  {
   "cell_type": "code",
   "execution_count": 145,
   "id": "af7fe4ed",
   "metadata": {},
   "outputs": [
    {
     "data": {
      "text/plain": [
       "Counter({'drama': 64, 'comedy': 25, 'short': 11})"
      ]
     },
     "execution_count": 145,
     "metadata": {},
     "output_type": "execute_result"
    }
   ],
   "source": [
    "genres = Counter([result[\"label\"] for result in result])\n",
    "genres"
   ]
  },
  {
   "cell_type": "code",
   "execution_count": 146,
   "id": "93d5b20f",
   "metadata": {},
   "outputs": [
    {
     "name": "stdout",
     "output_type": "stream",
     "text": [
      "{'video_found': True, 'audio_found': True, 'metadata': {'major_brand': 'isom', 'minor_version': '1', 'compatible_brands': 'isom', 'creation_time': '2023-03-31T13:11:47.000000Z'}, 'inputs': [{'streams': [{'input_number': 0, 'stream_number': 0, 'stream_type': 'video', 'language': None, 'default': True, 'size': [480, 200], 'bitrate': 550, 'fps': 25.0, 'codec_name': 'h264', 'profile': '(Main)', 'metadata': {'Metadata': '', 'handler_name': 'VideoHandler', 'vendor_id': '[0][0][0][0]'}}, {'input_number': 0, 'stream_number': 1, 'stream_type': 'audio', 'language': None, 'default': True, 'fps': 48000, 'bitrate': 128, 'metadata': {'Metadata': '', 'handler_name': 'SoundHandler', 'vendor_id': '[0][0][0][0]'}}], 'input_number': 0}], 'duration': 1880.08, 'bitrate': 682, 'start': 0.0, 'default_video_input_number': 0, 'default_video_stream_number': 0, 'video_codec_name': 'h264', 'video_profile': '(Main)', 'video_size': [480, 200], 'video_bitrate': 550, 'video_fps': 25.0, 'default_audio_input_number': 0, 'default_audio_stream_number': 1, 'audio_fps': 48000, 'audio_bitrate': 128, 'video_duration': 1880.08, 'video_n_frames': 47002}\n",
      "/opt/homebrew/Caskroom/miniconda/base/envs/dlenv/lib/python3.11/site-packages/imageio_ffmpeg/binaries/ffmpeg-macos-aarch64-v7.1 -i ./data/vids/15716_2_7.mp4 -loglevel error -f image2pipe -vf scale=480:200 -sws_flags bicubic -pix_fmt rgb24 -vcodec rawvideo -\n",
      "Длина серии: 1880.08 секунд\n"
     ]
    }
   ],
   "source": [
    "from moviepy import VideoFileClip\n",
    "\n",
    "def get_video_duration(file_path):\n",
    "    clip = VideoFileClip(file_path)\n",
    "    return clip.duration\n",
    "\n",
    "duration = get_video_duration(f\"./data/vids/{file_name}.mp4\")\n",
    "print(f\"Длина серии: {duration} секунд\")"
   ]
  },
  {
   "cell_type": "code",
   "execution_count": 147,
   "id": "b8ebe722",
   "metadata": {},
   "outputs": [],
   "source": [
    "total_length = duration - 4*60 # режем титры и интро\n",
    "genre = genres.most_common()[0][0]"
   ]
  },
  {
   "cell_type": "code",
   "execution_count": 148,
   "id": "bf4de97d",
   "metadata": {},
   "outputs": [],
   "source": [
    "recap = generate_recap(genre, total_length)"
   ]
  },
  {
   "cell_type": "code",
   "execution_count": 149,
   "id": "c155c8d7",
   "metadata": {},
   "outputs": [
    {
     "data": {
      "text/plain": [
       "{'setup': {'description': 'Установление основного конфликта',\n",
       "  'start': '0:01:22',\n",
       "  'end': '0:04:06',\n",
       "  'clip_start': '0:02:27',\n",
       "  'clip_end': '0:02:47'},\n",
       " 'development': {'description': 'Эмоциональное развитие персонажа',\n",
       "  'start': '0:05:28',\n",
       "  'end': '0:10:56',\n",
       "  'clip_start': '0:08:10',\n",
       "  'clip_end': '0:08:30'},\n",
       " 'twist': {'description': 'Поворот сюжета или неожиданное развитие',\n",
       "  'start': '0:13:40',\n",
       "  'end': '0:16:24',\n",
       "  'clip_start': '0:14:57',\n",
       "  'clip_end': '0:15:17'},\n",
       " 'climax': {'description': 'Главный конфликт между героями',\n",
       "  'start': '0:16:24',\n",
       "  'end': '0:20:30',\n",
       "  'clip_start': '0:16:40',\n",
       "  'clip_end': '0:17:00'},\n",
       " 'resolution': {'description': 'Частичное разрешение, но с продолжением',\n",
       "  'start': '0:21:52',\n",
       "  'end': '0:24:36',\n",
       "  'clip_start': '0:23:35',\n",
       "  'clip_end': '0:23:55'},\n",
       " 'cliffhanger': {'description': 'Неожиданный поворот или намёк на следующую серию',\n",
       "  'start': '0:25:58',\n",
       "  'end': '0:27:20',\n",
       "  'clip_start': '0:26:31',\n",
       "  'clip_end': '0:26:51'}}"
      ]
     },
     "execution_count": 149,
     "metadata": {},
     "output_type": "execute_result"
    }
   ],
   "source": [
    "recap"
   ]
  },
  {
   "cell_type": "code",
   "execution_count": 150,
   "id": "1ca01667",
   "metadata": {},
   "outputs": [],
   "source": [
    "def get_borders(recap_data):\n",
    "    result_list = []\n",
    "    for element in recap_data.keys():\n",
    "        try:\n",
    "            result_list.append(\n",
    "                (recap_data[element][\"clip_start\"], recap_data[element][\"clip_end\"]))\n",
    "        except TypeError: # если в жанре нет соответсующего унифицированного отрезка\n",
    "            pass\n",
    "        \n",
    "    return result_list"
   ]
  },
  {
   "cell_type": "code",
   "execution_count": 151,
   "id": "8aebb879",
   "metadata": {},
   "outputs": [
    {
     "data": {
      "text/plain": [
       "[('0:02:27', '0:02:47'),\n",
       " ('0:08:10', '0:08:30'),\n",
       " ('0:14:57', '0:15:17'),\n",
       " ('0:16:40', '0:17:00'),\n",
       " ('0:23:35', '0:23:55'),\n",
       " ('0:26:31', '0:26:51')]"
      ]
     },
     "execution_count": 151,
     "metadata": {},
     "output_type": "execute_result"
    }
   ],
   "source": [
    "clips_times = get_borders(recap)\n",
    "clips_times"
   ]
  },
  {
   "cell_type": "code",
   "execution_count": 152,
   "id": "8f2aa999",
   "metadata": {},
   "outputs": [
    {
     "name": "stderr",
     "output_type": "stream",
     "text": [
      "ffmpeg version 7.1.1 Copyright (c) 2000-2025 the FFmpeg developers\n",
      "  built with Apple clang version 16.0.0 (clang-1600.0.26.6)\n",
      "  configuration: --prefix=/opt/homebrew/Cellar/ffmpeg/7.1.1_2 --enable-shared --enable-pthreads --enable-version3 --cc=clang --host-cflags= --host-ldflags='-Wl,-ld_classic' --enable-ffplay --enable-gnutls --enable-gpl --enable-libaom --enable-libaribb24 --enable-libbluray --enable-libdav1d --enable-libharfbuzz --enable-libjxl --enable-libmp3lame --enable-libopus --enable-librav1e --enable-librist --enable-librubberband --enable-libsnappy --enable-libsrt --enable-libssh --enable-libsvtav1 --enable-libtesseract --enable-libtheora --enable-libvidstab --enable-libvmaf --enable-libvorbis --enable-libvpx --enable-libwebp --enable-libx264 --enable-libx265 --enable-libxml2 --enable-libxvid --enable-lzma --enable-libfontconfig --enable-libfreetype --enable-frei0r --enable-libass --enable-libopencore-amrnb --enable-libopencore-amrwb --enable-libopenjpeg --enable-libspeex --enable-libsoxr --enable-libzmq --enable-libzimg --disable-libjack --disable-indev=jack --enable-videotoolbox --enable-audiotoolbox --enable-neon\n",
      "  libavutil      59. 39.100 / 59. 39.100\n",
      "  libavcodec     61. 19.101 / 61. 19.101\n",
      "  libavformat    61.  7.100 / 61.  7.100\n",
      "  libavdevice    61.  3.100 / 61.  3.100\n",
      "  libavfilter    10.  4.100 / 10.  4.100\n",
      "  libswscale      8.  3.100 /  8.  3.100\n",
      "  libswresample   5.  3.100 /  5.  3.100\n",
      "  libpostproc    58.  3.100 / 58.  3.100\n",
      "Input #0, mov,mp4,m4a,3gp,3g2,mj2, from './data/vids/15716_2_7.mp4':\n",
      "  Metadata:\n",
      "    major_brand     : isom\n",
      "    minor_version   : 1\n",
      "    compatible_brands: isom\n",
      "    creation_time   : 2023-03-31T13:11:47.000000Z\n",
      "  Duration: 00:31:20.08, start: 0.000000, bitrate: 682 kb/s\n",
      "  Stream #0:0[0x1](und): Video: h264 (Main) (avc1 / 0x31637661), yuv420p(progressive), 480x200, 550 kb/s, 25 fps, 25 tbr, 12800 tbn (default)\n",
      "      Metadata:\n",
      "        handler_name    : VideoHandler\n",
      "        vendor_id       : [0][0][0][0]\n",
      "  Stream #0:1[0x2](und): Audio: aac (LC) (mp4a / 0x6134706D), 48000 Hz, stereo, fltp, 128 kb/s (default)\n",
      "      Metadata:\n",
      "        handler_name    : SoundHandler\n",
      "        vendor_id       : [0][0][0][0]\n",
      "Stream mapping:\n",
      "  Stream #0:0 -> #0:0 (copy)\n",
      "  Stream #0:1 -> #0:1 (copy)\n",
      "Output #0, mp4, to 'clip_0.mp4':\n",
      "  Metadata:\n",
      "    major_brand     : isom\n",
      "    minor_version   : 1\n",
      "    compatible_brands: isom\n",
      "    encoder         : Lavf61.7.100\n",
      "  Stream #0:0(und): Video: h264 (Main) (avc1 / 0x31637661), yuv420p(progressive), 480x200, q=2-31, 550 kb/s, 25 fps, 25 tbr, 12800 tbn (default)\n",
      "      Metadata:\n",
      "        handler_name    : VideoHandler\n",
      "        vendor_id       : [0][0][0][0]\n",
      "  Stream #0:1(und): Audio: aac (LC) (mp4a / 0x6134706D), 48000 Hz, stereo, fltp, 128 kb/s (default)\n",
      "      Metadata:\n",
      "        handler_name    : SoundHandler\n",
      "        vendor_id       : [0][0][0][0]\n",
      "Press [q] to stop, [?] for help\n",
      "[out#0/mp4 @ 0x143e34870] video:856KiB audio:329KiB subtitle:0KiB other streams:0KiB global headers:0KiB muxing overhead: 1.261208%\n",
      "frame=  526 fps=0.0 q=-1.0 Lsize=    1200KiB time=00:00:20.00 bitrate= 491.6kbits/s speed=4.75e+03x    \n",
      "ffmpeg version 7.1.1 Copyright (c) 2000-2025 the FFmpeg developers\n",
      "  built with Apple clang version 16.0.0 (clang-1600.0.26.6)\n",
      "  configuration: --prefix=/opt/homebrew/Cellar/ffmpeg/7.1.1_2 --enable-shared --enable-pthreads --enable-version3 --cc=clang --host-cflags= --host-ldflags='-Wl,-ld_classic' --enable-ffplay --enable-gnutls --enable-gpl --enable-libaom --enable-libaribb24 --enable-libbluray --enable-libdav1d --enable-libharfbuzz --enable-libjxl --enable-libmp3lame --enable-libopus --enable-librav1e --enable-librist --enable-librubberband --enable-libsnappy --enable-libsrt --enable-libssh --enable-libsvtav1 --enable-libtesseract --enable-libtheora --enable-libvidstab --enable-libvmaf --enable-libvorbis --enable-libvpx --enable-libwebp --enable-libx264 --enable-libx265 --enable-libxml2 --enable-libxvid --enable-lzma --enable-libfontconfig --enable-libfreetype --enable-frei0r --enable-libass --enable-libopencore-amrnb --enable-libopencore-amrwb --enable-libopenjpeg --enable-libspeex --enable-libsoxr --enable-libzmq --enable-libzimg --disable-libjack --disable-indev=jack --enable-videotoolbox --enable-audiotoolbox --enable-neon\n",
      "  libavutil      59. 39.100 / 59. 39.100\n",
      "  libavcodec     61. 19.101 / 61. 19.101\n",
      "  libavformat    61.  7.100 / 61.  7.100\n",
      "  libavdevice    61.  3.100 / 61.  3.100\n",
      "  libavfilter    10.  4.100 / 10.  4.100\n",
      "  libswscale      8.  3.100 /  8.  3.100\n",
      "  libswresample   5.  3.100 /  5.  3.100\n",
      "  libpostproc    58.  3.100 / 58.  3.100\n",
      "Input #0, mov,mp4,m4a,3gp,3g2,mj2, from './data/vids/15716_2_7.mp4':\n",
      "  Metadata:\n",
      "    major_brand     : isom\n",
      "    minor_version   : 1\n",
      "    compatible_brands: isom\n",
      "    creation_time   : 2023-03-31T13:11:47.000000Z\n",
      "  Duration: 00:31:20.08, start: 0.000000, bitrate: 682 kb/s\n",
      "  Stream #0:0[0x1](und): Video: h264 (Main) (avc1 / 0x31637661), yuv420p(progressive), 480x200, 550 kb/s, 25 fps, 25 tbr, 12800 tbn (default)\n",
      "      Metadata:\n",
      "        handler_name    : VideoHandler\n",
      "        vendor_id       : [0][0][0][0]\n",
      "  Stream #0:1[0x2](und): Audio: aac (LC) (mp4a / 0x6134706D), 48000 Hz, stereo, fltp, 128 kb/s (default)\n",
      "      Metadata:\n",
      "        handler_name    : SoundHandler\n",
      "        vendor_id       : [0][0][0][0]\n",
      "Stream mapping:\n",
      "  Stream #0:0 -> #0:0 (copy)\n",
      "  Stream #0:1 -> #0:1 (copy)\n",
      "Output #0, mp4, to 'clip_1.mp4':\n",
      "  Metadata:\n",
      "    major_brand     : isom\n",
      "    minor_version   : 1\n",
      "    compatible_brands: isom\n",
      "    encoder         : Lavf61.7.100\n",
      "  Stream #0:0(und): Video: h264 (Main) (avc1 / 0x31637661), yuv420p(progressive), 480x200, q=2-31, 550 kb/s, 25 fps, 25 tbr, 12800 tbn (default)\n",
      "      Metadata:\n",
      "        handler_name    : VideoHandler\n",
      "        vendor_id       : [0][0][0][0]\n",
      "  Stream #0:1(und): Audio: aac (LC) (mp4a / 0x6134706D), 48000 Hz, stereo, fltp, 128 kb/s (default)\n",
      "      Metadata:\n",
      "        handler_name    : SoundHandler\n",
      "        vendor_id       : [0][0][0][0]\n",
      "Press [q] to stop, [?] for help\n",
      "[out#0/mp4 @ 0x14be32740] video:2081KiB audio:314KiB subtitle:0KiB other streams:0KiB global headers:0KiB muxing overhead: 0.626255%\n",
      "frame=  501 fps=0.0 q=-1.0 Lsize=    2409KiB time=00:00:20.00 bitrate= 986.8kbits/s speed=3.46e+03x    \n",
      "ffmpeg version 7.1.1 Copyright (c) 2000-2025 the FFmpeg developers\n",
      "  built with Apple clang version 16.0.0 (clang-1600.0.26.6)\n",
      "  configuration: --prefix=/opt/homebrew/Cellar/ffmpeg/7.1.1_2 --enable-shared --enable-pthreads --enable-version3 --cc=clang --host-cflags= --host-ldflags='-Wl,-ld_classic' --enable-ffplay --enable-gnutls --enable-gpl --enable-libaom --enable-libaribb24 --enable-libbluray --enable-libdav1d --enable-libharfbuzz --enable-libjxl --enable-libmp3lame --enable-libopus --enable-librav1e --enable-librist --enable-librubberband --enable-libsnappy --enable-libsrt --enable-libssh --enable-libsvtav1 --enable-libtesseract --enable-libtheora --enable-libvidstab --enable-libvmaf --enable-libvorbis --enable-libvpx --enable-libwebp --enable-libx264 --enable-libx265 --enable-libxml2 --enable-libxvid --enable-lzma --enable-libfontconfig --enable-libfreetype --enable-frei0r --enable-libass --enable-libopencore-amrnb --enable-libopencore-amrwb --enable-libopenjpeg --enable-libspeex --enable-libsoxr --enable-libzmq --enable-libzimg --disable-libjack --disable-indev=jack --enable-videotoolbox --enable-audiotoolbox --enable-neon\n",
      "  libavutil      59. 39.100 / 59. 39.100\n",
      "  libavcodec     61. 19.101 / 61. 19.101\n",
      "  libavformat    61.  7.100 / 61.  7.100\n",
      "  libavdevice    61.  3.100 / 61.  3.100\n",
      "  libavfilter    10.  4.100 / 10.  4.100\n",
      "  libswscale      8.  3.100 /  8.  3.100\n",
      "  libswresample   5.  3.100 /  5.  3.100\n",
      "  libpostproc    58.  3.100 / 58.  3.100\n",
      "Input #0, mov,mp4,m4a,3gp,3g2,mj2, from './data/vids/15716_2_7.mp4':\n",
      "  Metadata:\n",
      "    major_brand     : isom\n",
      "    minor_version   : 1\n",
      "    compatible_brands: isom\n",
      "    creation_time   : 2023-03-31T13:11:47.000000Z\n",
      "  Duration: 00:31:20.08, start: 0.000000, bitrate: 682 kb/s\n",
      "  Stream #0:0[0x1](und): Video: h264 (Main) (avc1 / 0x31637661), yuv420p(progressive), 480x200, 550 kb/s, 25 fps, 25 tbr, 12800 tbn (default)\n",
      "      Metadata:\n",
      "        handler_name    : VideoHandler\n",
      "        vendor_id       : [0][0][0][0]\n",
      "  Stream #0:1[0x2](und): Audio: aac (LC) (mp4a / 0x6134706D), 48000 Hz, stereo, fltp, 128 kb/s (default)\n",
      "      Metadata:\n",
      "        handler_name    : SoundHandler\n",
      "        vendor_id       : [0][0][0][0]\n",
      "Stream mapping:\n",
      "  Stream #0:0 -> #0:0 (copy)\n",
      "  Stream #0:1 -> #0:1 (copy)\n",
      "Output #0, mp4, to 'clip_2.mp4':\n",
      "  Metadata:\n",
      "    major_brand     : isom\n",
      "    minor_version   : 1\n",
      "    compatible_brands: isom\n",
      "    encoder         : Lavf61.7.100\n",
      "  Stream #0:0(und): Video: h264 (Main) (avc1 / 0x31637661), yuv420p(progressive), 480x200, q=2-31, 550 kb/s, 25 fps, 25 tbr, 12800 tbn (default)\n",
      "      Metadata:\n",
      "        handler_name    : VideoHandler\n",
      "        vendor_id       : [0][0][0][0]\n",
      "  Stream #0:1(und): Audio: aac (LC) (mp4a / 0x6134706D), 48000 Hz, stereo, fltp, 128 kb/s (default)\n",
      "      Metadata:\n",
      "        handler_name    : SoundHandler\n",
      "        vendor_id       : [0][0][0][0]\n",
      "Press [q] to stop, [?] for help\n",
      "[out#0/mp4 @ 0x132f084e0] video:1209KiB audio:329KiB subtitle:0KiB other streams:0KiB global headers:0KiB muxing overhead: 1.016789%\n",
      "frame=  526 fps=0.0 q=-1.0 Lsize=    1554KiB time=00:00:20.00 bitrate= 636.4kbits/s speed=3.69e+03x    \n",
      "ffmpeg version 7.1.1 Copyright (c) 2000-2025 the FFmpeg developers\n",
      "  built with Apple clang version 16.0.0 (clang-1600.0.26.6)\n",
      "  configuration: --prefix=/opt/homebrew/Cellar/ffmpeg/7.1.1_2 --enable-shared --enable-pthreads --enable-version3 --cc=clang --host-cflags= --host-ldflags='-Wl,-ld_classic' --enable-ffplay --enable-gnutls --enable-gpl --enable-libaom --enable-libaribb24 --enable-libbluray --enable-libdav1d --enable-libharfbuzz --enable-libjxl --enable-libmp3lame --enable-libopus --enable-librav1e --enable-librist --enable-librubberband --enable-libsnappy --enable-libsrt --enable-libssh --enable-libsvtav1 --enable-libtesseract --enable-libtheora --enable-libvidstab --enable-libvmaf --enable-libvorbis --enable-libvpx --enable-libwebp --enable-libx264 --enable-libx265 --enable-libxml2 --enable-libxvid --enable-lzma --enable-libfontconfig --enable-libfreetype --enable-frei0r --enable-libass --enable-libopencore-amrnb --enable-libopencore-amrwb --enable-libopenjpeg --enable-libspeex --enable-libsoxr --enable-libzmq --enable-libzimg --disable-libjack --disable-indev=jack --enable-videotoolbox --enable-audiotoolbox --enable-neon\n",
      "  libavutil      59. 39.100 / 59. 39.100\n",
      "  libavcodec     61. 19.101 / 61. 19.101\n",
      "  libavformat    61.  7.100 / 61.  7.100\n",
      "  libavdevice    61.  3.100 / 61.  3.100\n",
      "  libavfilter    10.  4.100 / 10.  4.100\n",
      "  libswscale      8.  3.100 /  8.  3.100\n",
      "  libswresample   5.  3.100 /  5.  3.100\n",
      "  libpostproc    58.  3.100 / 58.  3.100\n",
      "Input #0, mov,mp4,m4a,3gp,3g2,mj2, from './data/vids/15716_2_7.mp4':\n",
      "  Metadata:\n",
      "    major_brand     : isom\n",
      "    minor_version   : 1\n",
      "    compatible_brands: isom\n",
      "    creation_time   : 2023-03-31T13:11:47.000000Z\n",
      "  Duration: 00:31:20.08, start: 0.000000, bitrate: 682 kb/s\n",
      "  Stream #0:0[0x1](und): Video: h264 (Main) (avc1 / 0x31637661), yuv420p(progressive), 480x200, 550 kb/s, 25 fps, 25 tbr, 12800 tbn (default)\n",
      "      Metadata:\n",
      "        handler_name    : VideoHandler\n",
      "        vendor_id       : [0][0][0][0]\n",
      "  Stream #0:1[0x2](und): Audio: aac (LC) (mp4a / 0x6134706D), 48000 Hz, stereo, fltp, 128 kb/s (default)\n",
      "      Metadata:\n",
      "        handler_name    : SoundHandler\n",
      "        vendor_id       : [0][0][0][0]\n",
      "Stream mapping:\n",
      "  Stream #0:0 -> #0:0 (copy)\n",
      "  Stream #0:1 -> #0:1 (copy)\n",
      "Output #0, mp4, to 'clip_3.mp4':\n",
      "  Metadata:\n",
      "    major_brand     : isom\n",
      "    minor_version   : 1\n",
      "    compatible_brands: isom\n",
      "    encoder         : Lavf61.7.100\n",
      "  Stream #0:0(und): Video: h264 (Main) (avc1 / 0x31637661), yuv420p(progressive), 480x200, q=2-31, 550 kb/s, 25 fps, 25 tbr, 12800 tbn (default)\n",
      "      Metadata:\n",
      "        handler_name    : VideoHandler\n",
      "        vendor_id       : [0][0][0][0]\n",
      "  Stream #0:1(und): Audio: aac (LC) (mp4a / 0x6134706D), 48000 Hz, stereo, fltp, 128 kb/s (default)\n",
      "      Metadata:\n",
      "        handler_name    : SoundHandler\n",
      "        vendor_id       : [0][0][0][0]\n",
      "Press [q] to stop, [?] for help\n",
      "[out#0/mp4 @ 0x1210085d0] video:2113KiB audio:313KiB subtitle:0KiB other streams:0KiB global headers:0KiB muxing overhead: 0.651580%\n",
      "frame=  501 fps=0.0 q=-1.0 Lsize=    2442KiB time=00:00:20.00 bitrate=1000.4kbits/s speed=3.71e+03x    \n",
      "ffmpeg version 7.1.1 Copyright (c) 2000-2025 the FFmpeg developers\n",
      "  built with Apple clang version 16.0.0 (clang-1600.0.26.6)\n",
      "  configuration: --prefix=/opt/homebrew/Cellar/ffmpeg/7.1.1_2 --enable-shared --enable-pthreads --enable-version3 --cc=clang --host-cflags= --host-ldflags='-Wl,-ld_classic' --enable-ffplay --enable-gnutls --enable-gpl --enable-libaom --enable-libaribb24 --enable-libbluray --enable-libdav1d --enable-libharfbuzz --enable-libjxl --enable-libmp3lame --enable-libopus --enable-librav1e --enable-librist --enable-librubberband --enable-libsnappy --enable-libsrt --enable-libssh --enable-libsvtav1 --enable-libtesseract --enable-libtheora --enable-libvidstab --enable-libvmaf --enable-libvorbis --enable-libvpx --enable-libwebp --enable-libx264 --enable-libx265 --enable-libxml2 --enable-libxvid --enable-lzma --enable-libfontconfig --enable-libfreetype --enable-frei0r --enable-libass --enable-libopencore-amrnb --enable-libopencore-amrwb --enable-libopenjpeg --enable-libspeex --enable-libsoxr --enable-libzmq --enable-libzimg --disable-libjack --disable-indev=jack --enable-videotoolbox --enable-audiotoolbox --enable-neon\n",
      "  libavutil      59. 39.100 / 59. 39.100\n",
      "  libavcodec     61. 19.101 / 61. 19.101\n",
      "  libavformat    61.  7.100 / 61.  7.100\n",
      "  libavdevice    61.  3.100 / 61.  3.100\n",
      "  libavfilter    10.  4.100 / 10.  4.100\n",
      "  libswscale      8.  3.100 /  8.  3.100\n",
      "  libswresample   5.  3.100 /  5.  3.100\n",
      "  libpostproc    58.  3.100 / 58.  3.100\n",
      "Input #0, mov,mp4,m4a,3gp,3g2,mj2, from './data/vids/15716_2_7.mp4':\n",
      "  Metadata:\n",
      "    major_brand     : isom\n",
      "    minor_version   : 1\n",
      "    compatible_brands: isom\n",
      "    creation_time   : 2023-03-31T13:11:47.000000Z\n",
      "  Duration: 00:31:20.08, start: 0.000000, bitrate: 682 kb/s\n",
      "  Stream #0:0[0x1](und): Video: h264 (Main) (avc1 / 0x31637661), yuv420p(progressive), 480x200, 550 kb/s, 25 fps, 25 tbr, 12800 tbn (default)\n",
      "      Metadata:\n",
      "        handler_name    : VideoHandler\n",
      "        vendor_id       : [0][0][0][0]\n",
      "  Stream #0:1[0x2](und): Audio: aac (LC) (mp4a / 0x6134706D), 48000 Hz, stereo, fltp, 128 kb/s (default)\n",
      "      Metadata:\n",
      "        handler_name    : SoundHandler\n",
      "        vendor_id       : [0][0][0][0]\n",
      "Stream mapping:\n",
      "  Stream #0:0 -> #0:0 (copy)\n",
      "  Stream #0:1 -> #0:1 (copy)\n",
      "Output #0, mp4, to 'clip_4.mp4':\n",
      "  Metadata:\n",
      "    major_brand     : isom\n",
      "    minor_version   : 1\n",
      "    compatible_brands: isom\n",
      "    encoder         : Lavf61.7.100\n",
      "  Stream #0:0(und): Video: h264 (Main) (avc1 / 0x31637661), yuv420p(progressive), 480x200, q=2-31, 550 kb/s, 25 fps, 25 tbr, 12800 tbn (default)\n",
      "      Metadata:\n",
      "        handler_name    : VideoHandler\n",
      "        vendor_id       : [0][0][0][0]\n",
      "  Stream #0:1(und): Audio: aac (LC) (mp4a / 0x6134706D), 48000 Hz, stereo, fltp, 128 kb/s (default)\n",
      "      Metadata:\n",
      "        handler_name    : SoundHandler\n",
      "        vendor_id       : [0][0][0][0]\n",
      "Press [q] to stop, [?] for help\n",
      "[out#0/mp4 @ 0x107504fc0] video:1620KiB audio:329KiB subtitle:0KiB other streams:0KiB global headers:0KiB muxing overhead: 0.793909%\n",
      "frame=  526 fps=0.0 q=-1.0 Lsize=    1965KiB time=00:00:20.00 bitrate= 804.7kbits/s speed=1.88e+03x    \n",
      "ffmpeg version 7.1.1 Copyright (c) 2000-2025 the FFmpeg developers\n",
      "  built with Apple clang version 16.0.0 (clang-1600.0.26.6)\n",
      "  configuration: --prefix=/opt/homebrew/Cellar/ffmpeg/7.1.1_2 --enable-shared --enable-pthreads --enable-version3 --cc=clang --host-cflags= --host-ldflags='-Wl,-ld_classic' --enable-ffplay --enable-gnutls --enable-gpl --enable-libaom --enable-libaribb24 --enable-libbluray --enable-libdav1d --enable-libharfbuzz --enable-libjxl --enable-libmp3lame --enable-libopus --enable-librav1e --enable-librist --enable-librubberband --enable-libsnappy --enable-libsrt --enable-libssh --enable-libsvtav1 --enable-libtesseract --enable-libtheora --enable-libvidstab --enable-libvmaf --enable-libvorbis --enable-libvpx --enable-libwebp --enable-libx264 --enable-libx265 --enable-libxml2 --enable-libxvid --enable-lzma --enable-libfontconfig --enable-libfreetype --enable-frei0r --enable-libass --enable-libopencore-amrnb --enable-libopencore-amrwb --enable-libopenjpeg --enable-libspeex --enable-libsoxr --enable-libzmq --enable-libzimg --disable-libjack --disable-indev=jack --enable-videotoolbox --enable-audiotoolbox --enable-neon\n",
      "  libavutil      59. 39.100 / 59. 39.100\n",
      "  libavcodec     61. 19.101 / 61. 19.101\n",
      "  libavformat    61.  7.100 / 61.  7.100\n",
      "  libavdevice    61.  3.100 / 61.  3.100\n",
      "  libavfilter    10.  4.100 / 10.  4.100\n",
      "  libswscale      8.  3.100 /  8.  3.100\n",
      "  libswresample   5.  3.100 /  5.  3.100\n",
      "  libpostproc    58.  3.100 / 58.  3.100\n",
      "Input #0, mov,mp4,m4a,3gp,3g2,mj2, from './data/vids/15716_2_7.mp4':\n",
      "  Metadata:\n",
      "    major_brand     : isom\n",
      "    minor_version   : 1\n",
      "    compatible_brands: isom\n",
      "    creation_time   : 2023-03-31T13:11:47.000000Z\n",
      "  Duration: 00:31:20.08, start: 0.000000, bitrate: 682 kb/s\n",
      "  Stream #0:0[0x1](und): Video: h264 (Main) (avc1 / 0x31637661), yuv420p(progressive), 480x200, 550 kb/s, 25 fps, 25 tbr, 12800 tbn (default)\n",
      "      Metadata:\n",
      "        handler_name    : VideoHandler\n",
      "        vendor_id       : [0][0][0][0]\n",
      "  Stream #0:1[0x2](und): Audio: aac (LC) (mp4a / 0x6134706D), 48000 Hz, stereo, fltp, 128 kb/s (default)\n",
      "      Metadata:\n",
      "        handler_name    : SoundHandler\n",
      "        vendor_id       : [0][0][0][0]\n",
      "Stream mapping:\n",
      "  Stream #0:0 -> #0:0 (copy)\n",
      "  Stream #0:1 -> #0:1 (copy)\n",
      "Output #0, mp4, to 'clip_5.mp4':\n",
      "  Metadata:\n",
      "    major_brand     : isom\n",
      "    minor_version   : 1\n",
      "    compatible_brands: isom\n",
      "    encoder         : Lavf61.7.100\n",
      "  Stream #0:0(und): Video: h264 (Main) (avc1 / 0x31637661), yuv420p(progressive), 480x200, q=2-31, 550 kb/s, 25 fps, 25 tbr, 12800 tbn (default)\n",
      "      Metadata:\n",
      "        handler_name    : VideoHandler\n",
      "        vendor_id       : [0][0][0][0]\n",
      "  Stream #0:1(und): Audio: aac (LC) (mp4a / 0x6134706D), 48000 Hz, stereo, fltp, 128 kb/s (default)\n",
      "      Metadata:\n",
      "        handler_name    : SoundHandler\n",
      "        vendor_id       : [0][0][0][0]\n",
      "Press [q] to stop, [?] for help\n",
      "[out#0/mp4 @ 0x1276320a0] video:1617KiB audio:329KiB subtitle:0KiB other streams:0KiB global headers:0KiB muxing overhead: 0.808410%\n",
      "frame=  526 fps=0.0 q=-1.0 Lsize=    1962KiB time=00:00:20.00 bitrate= 803.6kbits/s speed=3.48e+03x    \n"
     ]
    },
    {
     "name": "stdout",
     "output_type": "stream",
     "text": [
      "Видео успешно сохранено: ./data/result/15716_2_7_final_recap.mp4\n"
     ]
    },
    {
     "name": "stderr",
     "output_type": "stream",
     "text": [
      "ffmpeg version 7.1.1 Copyright (c) 2000-2025 the FFmpeg developers\n",
      "  built with Apple clang version 16.0.0 (clang-1600.0.26.6)\n",
      "  configuration: --prefix=/opt/homebrew/Cellar/ffmpeg/7.1.1_2 --enable-shared --enable-pthreads --enable-version3 --cc=clang --host-cflags= --host-ldflags='-Wl,-ld_classic' --enable-ffplay --enable-gnutls --enable-gpl --enable-libaom --enable-libaribb24 --enable-libbluray --enable-libdav1d --enable-libharfbuzz --enable-libjxl --enable-libmp3lame --enable-libopus --enable-librav1e --enable-librist --enable-librubberband --enable-libsnappy --enable-libsrt --enable-libssh --enable-libsvtav1 --enable-libtesseract --enable-libtheora --enable-libvidstab --enable-libvmaf --enable-libvorbis --enable-libvpx --enable-libwebp --enable-libx264 --enable-libx265 --enable-libxml2 --enable-libxvid --enable-lzma --enable-libfontconfig --enable-libfreetype --enable-frei0r --enable-libass --enable-libopencore-amrnb --enable-libopencore-amrwb --enable-libopenjpeg --enable-libspeex --enable-libsoxr --enable-libzmq --enable-libzimg --disable-libjack --disable-indev=jack --enable-videotoolbox --enable-audiotoolbox --enable-neon\n",
      "  libavutil      59. 39.100 / 59. 39.100\n",
      "  libavcodec     61. 19.101 / 61. 19.101\n",
      "  libavformat    61.  7.100 / 61.  7.100\n",
      "  libavdevice    61.  3.100 / 61.  3.100\n",
      "  libavfilter    10.  4.100 / 10.  4.100\n",
      "  libswscale      8.  3.100 /  8.  3.100\n",
      "  libswresample   5.  3.100 /  5.  3.100\n",
      "  libpostproc    58.  3.100 / 58.  3.100\n",
      "[mov,mp4,m4a,3gp,3g2,mj2 @ 0x144e072f0] Auto-inserting h264_mp4toannexb bitstream filter\n",
      "Input #0, concat, from 'clips_list.txt':\n",
      "  Duration: N/A, start: -1.016000, bitrate: 461 kb/s\n",
      "  Stream #0:0(und): Video: h264 (Main) (avc1 / 0x31637661), yuv420p(progressive), 480x200, 333 kb/s, 25 fps, 25 tbr, 12800 tbn\n",
      "      Metadata:\n",
      "        handler_name    : VideoHandler\n",
      "        vendor_id       : [0][0][0][0]\n",
      "  Stream #0:1(und): Audio: aac (LC) (mp4a / 0x6134706D), 48000 Hz, stereo, fltp, 128 kb/s\n",
      "      Metadata:\n",
      "        handler_name    : SoundHandler\n",
      "        vendor_id       : [0][0][0][0]\n",
      "Stream mapping:\n",
      "  Stream #0:0 -> #0:0 (copy)\n",
      "  Stream #0:1 -> #0:1 (copy)\n",
      "Output #0, mp4, to './data/result/15716_2_7_final_recap.mp4':\n",
      "  Metadata:\n",
      "    encoder         : Lavf61.7.100\n",
      "  Stream #0:0(und): Video: h264 (Main) (avc1 / 0x31637661), yuv420p(progressive), 480x200, q=2-31, 333 kb/s, 25 fps, 25 tbr, 12800 tbn\n",
      "      Metadata:\n",
      "        handler_name    : VideoHandler\n",
      "        vendor_id       : [0][0][0][0]\n",
      "  Stream #0:1(und): Audio: aac (LC) (mp4a / 0x6134706D), 48000 Hz, stereo, fltp, 128 kb/s\n",
      "      Metadata:\n",
      "        handler_name    : SoundHandler\n",
      "        vendor_id       : [0][0][0][0]\n",
      "Press [q] to stop, [?] for help\n",
      "[mov,mp4,m4a,3gp,3g2,mj2 @ 0x146104c70] Auto-inserting h264_mp4toannexb bitstream filter\n",
      "[mov,mp4,m4a,3gp,3g2,mj2 @ 0x144e14920] Auto-inserting h264_mp4toannexb bitstream filter\n",
      "[vost#0:0/copy @ 0x1460106b0] Non-monotonic DTS; previous: 525517, current: 513229; changing to 525518. This may result in incorrect timestamps in the output file.\n",
      "[vost#0:0/copy @ 0x1460106b0] Non-monotonic DTS; previous: 525518, current: 513741; changing to 525519. This may result in incorrect timestamps in the output file.\n",
      "[aost#0:1/copy @ 0x146011390] Non-monotonic DTS; previous: 1972352, current: 1926528; changing to 1972353. This may result in incorrect timestamps in the output file.\n",
      "[aost#0:1/copy @ 0x146011390] Non-monotonic DTS; previous: 1972353, current: 1927552; changing to 1972354. This may result in incorrect timestamps in the output file.\n",
      "[vost#0:0/copy @ 0x1460106b0] Non-monotonic DTS; previous: 525519, current: 514253; changing to 525520. This may result in incorrect timestamps in the output file.\n",
      "[aost#0:1/copy @ 0x146011390] Non-monotonic DTS; previous: 1972354, current: 1928576; changing to 1972355. This may result in incorrect timestamps in the output file.\n",
      "[aost#0:1/copy @ 0x146011390] Non-monotonic DTS; previous: 1972355, current: 1929600; changing to 1972356. This may result in incorrect timestamps in the output file.\n",
      "[vost#0:0/copy @ 0x1460106b0] Non-monotonic DTS; previous: 525520, current: 514765; changing to 525521. This may result in incorrect timestamps in the output file.\n",
      "[aost#0:1/copy @ 0x146011390] Non-monotonic DTS; previous: 1972356, current: 1930624; changing to 1972357. This may result in incorrect timestamps in the output file.\n",
      "[aost#0:1/copy @ 0x146011390] Non-monotonic DTS; previous: 1972357, current: 1931648; changing to 1972358. This may result in incorrect timestamps in the output file.\n",
      "[vost#0:0/copy @ 0x1460106b0] Non-monotonic DTS; previous: 525521, current: 515277; changing to 525522. This may result in incorrect timestamps in the output file.\n",
      "[aost#0:1/copy @ 0x146011390] Non-monotonic DTS; previous: 1972358, current: 1932672; changing to 1972359. This may result in incorrect timestamps in the output file.\n",
      "[aost#0:1/copy @ 0x146011390] Non-monotonic DTS; previous: 1972359, current: 1933696; changing to 1972360. This may result in incorrect timestamps in the output file.\n",
      "[vost#0:0/copy @ 0x1460106b0] Non-monotonic DTS; previous: 525522, current: 515789; changing to 525523. This may result in incorrect timestamps in the output file.\n",
      "[aost#0:1/copy @ 0x146011390] Non-monotonic DTS; previous: 1972360, current: 1934720; changing to 1972361. This may result in incorrect timestamps in the output file.\n",
      "[aost#0:1/copy @ 0x146011390] Non-monotonic DTS; previous: 1972361, current: 1935744; changing to 1972362. This may result in incorrect timestamps in the output file.\n",
      "[vost#0:0/copy @ 0x1460106b0] Non-monotonic DTS; previous: 525523, current: 516301; changing to 525524. This may result in incorrect timestamps in the output file.\n",
      "[aost#0:1/copy @ 0x146011390] Non-monotonic DTS; previous: 1972362, current: 1936768; changing to 1972363. This may result in incorrect timestamps in the output file.\n",
      "[aost#0:1/copy @ 0x146011390] Non-monotonic DTS; previous: 1972363, current: 1937792; changing to 1972364. This may result in incorrect timestamps in the output file.\n",
      "[vost#0:0/copy @ 0x1460106b0] Non-monotonic DTS; previous: 525524, current: 516813; changing to 525525. This may result in incorrect timestamps in the output file.\n",
      "[aost#0:1/copy @ 0x146011390] Non-monotonic DTS; previous: 1972364, current: 1938816; changing to 1972365. This may result in incorrect timestamps in the output file.\n",
      "[aost#0:1/copy @ 0x146011390] Non-monotonic DTS; previous: 1972365, current: 1939840; changing to 1972366. This may result in incorrect timestamps in the output file.\n",
      "[vost#0:0/copy @ 0x1460106b0] Non-monotonic DTS; previous: 525525, current: 517325; changing to 525526. This may result in incorrect timestamps in the output file.\n",
      "[aost#0:1/copy @ 0x146011390] Non-monotonic DTS; previous: 1972366, current: 1940864; changing to 1972367. This may result in incorrect timestamps in the output file.\n",
      "[vost#0:0/copy @ 0x1460106b0] Non-monotonic DTS; previous: 525526, current: 517837; changing to 525527. This may result in incorrect timestamps in the output file.\n",
      "[aost#0:1/copy @ 0x146011390] Non-monotonic DTS; previous: 1972367, current: 1941888; changing to 1972368. This may result in incorrect timestamps in the output file.\n",
      "[aost#0:1/copy @ 0x146011390] Non-monotonic DTS; previous: 1972368, current: 1942912; changing to 1972369. This may result in incorrect timestamps in the output file.\n",
      "[vost#0:0/copy @ 0x1460106b0] Non-monotonic DTS; previous: 525527, current: 518349; changing to 525528. This may result in incorrect timestamps in the output file.\n",
      "[aost#0:1/copy @ 0x146011390] Non-monotonic DTS; previous: 1972369, current: 1943936; changing to 1972370. This may result in incorrect timestamps in the output file.\n",
      "[aost#0:1/copy @ 0x146011390] Non-monotonic DTS; previous: 1972370, current: 1944960; changing to 1972371. This may result in incorrect timestamps in the output file.\n",
      "[vost#0:0/copy @ 0x1460106b0] Non-monotonic DTS; previous: 525528, current: 518861; changing to 525529. This may result in incorrect timestamps in the output file.\n",
      "[aost#0:1/copy @ 0x146011390] Non-monotonic DTS; previous: 1972371, current: 1945984; changing to 1972372. This may result in incorrect timestamps in the output file.\n",
      "[aost#0:1/copy @ 0x146011390] Non-monotonic DTS; previous: 1972372, current: 1947008; changing to 1972373. This may result in incorrect timestamps in the output file.\n",
      "[vost#0:0/copy @ 0x1460106b0] Non-monotonic DTS; previous: 525529, current: 519373; changing to 525530. This may result in incorrect timestamps in the output file.\n",
      "[aost#0:1/copy @ 0x146011390] Non-monotonic DTS; previous: 1972373, current: 1948032; changing to 1972374. This may result in incorrect timestamps in the output file.\n",
      "[aost#0:1/copy @ 0x146011390] Non-monotonic DTS; previous: 1972374, current: 1949056; changing to 1972375. This may result in incorrect timestamps in the output file.\n",
      "[vost#0:0/copy @ 0x1460106b0] Non-monotonic DTS; previous: 525530, current: 519885; changing to 525531. This may result in incorrect timestamps in the output file.\n",
      "[aost#0:1/copy @ 0x146011390] Non-monotonic DTS; previous: 1972375, current: 1950080; changing to 1972376. This may result in incorrect timestamps in the output file.\n",
      "[aost#0:1/copy @ 0x146011390] Non-monotonic DTS; previous: 1972376, current: 1951104; changing to 1972377. This may result in incorrect timestamps in the output file.\n",
      "[vost#0:0/copy @ 0x1460106b0] Non-monotonic DTS; previous: 525531, current: 520397; changing to 525532. This may result in incorrect timestamps in the output file.\n",
      "[aost#0:1/copy @ 0x146011390] Non-monotonic DTS; previous: 1972377, current: 1952128; changing to 1972378. This may result in incorrect timestamps in the output file.\n",
      "[aost#0:1/copy @ 0x146011390] Non-monotonic DTS; previous: 1972378, current: 1953152; changing to 1972379. This may result in incorrect timestamps in the output file.\n",
      "[vost#0:0/copy @ 0x1460106b0] Non-monotonic DTS; previous: 525532, current: 520909; changing to 525533. This may result in incorrect timestamps in the output file.\n",
      "[aost#0:1/copy @ 0x146011390] Non-monotonic DTS; previous: 1972379, current: 1954176; changing to 1972380. This may result in incorrect timestamps in the output file.\n",
      "[aost#0:1/copy @ 0x146011390] Non-monotonic DTS; previous: 1972380, current: 1955200; changing to 1972381. This may result in incorrect timestamps in the output file.\n",
      "[vost#0:0/copy @ 0x1460106b0] Non-monotonic DTS; previous: 525533, current: 521421; changing to 525534. This may result in incorrect timestamps in the output file.\n",
      "[aost#0:1/copy @ 0x146011390] Non-monotonic DTS; previous: 1972381, current: 1956224; changing to 1972382. This may result in incorrect timestamps in the output file.\n",
      "[vost#0:0/copy @ 0x1460106b0] Non-monotonic DTS; previous: 525534, current: 521933; changing to 525535. This may result in incorrect timestamps in the output file.\n",
      "[aost#0:1/copy @ 0x146011390] Non-monotonic DTS; previous: 1972382, current: 1957248; changing to 1972383. This may result in incorrect timestamps in the output file.\n",
      "[aost#0:1/copy @ 0x146011390] Non-monotonic DTS; previous: 1972383, current: 1958272; changing to 1972384. This may result in incorrect timestamps in the output file.\n",
      "[vost#0:0/copy @ 0x1460106b0] Non-monotonic DTS; previous: 525535, current: 522445; changing to 525536. This may result in incorrect timestamps in the output file.\n",
      "[aost#0:1/copy @ 0x146011390] Non-monotonic DTS; previous: 1972384, current: 1959296; changing to 1972385. This may result in incorrect timestamps in the output file.\n",
      "[aost#0:1/copy @ 0x146011390] Non-monotonic DTS; previous: 1972385, current: 1960320; changing to 1972386. This may result in incorrect timestamps in the output file.\n",
      "[vost#0:0/copy @ 0x1460106b0] Non-monotonic DTS; previous: 525536, current: 522957; changing to 525537. This may result in incorrect timestamps in the output file.\n",
      "[aost#0:1/copy @ 0x146011390] Non-monotonic DTS; previous: 1972386, current: 1961344; changing to 1972387. This may result in incorrect timestamps in the output file.\n",
      "[aost#0:1/copy @ 0x146011390] Non-monotonic DTS; previous: 1972387, current: 1962368; changing to 1972388. This may result in incorrect timestamps in the output file.\n",
      "[vost#0:0/copy @ 0x1460106b0] Non-monotonic DTS; previous: 525537, current: 523469; changing to 525538. This may result in incorrect timestamps in the output file.\n",
      "[aost#0:1/copy @ 0x146011390] Non-monotonic DTS; previous: 1972388, current: 1963392; changing to 1972389. This may result in incorrect timestamps in the output file.\n",
      "[aost#0:1/copy @ 0x146011390] Non-monotonic DTS; previous: 1972389, current: 1964416; changing to 1972390. This may result in incorrect timestamps in the output file.\n",
      "[vost#0:0/copy @ 0x1460106b0] Non-monotonic DTS; previous: 525538, current: 523981; changing to 525539. This may result in incorrect timestamps in the output file.\n",
      "[aost#0:1/copy @ 0x146011390] Non-monotonic DTS; previous: 1972390, current: 1965440; changing to 1972391. This may result in incorrect timestamps in the output file.\n",
      "[aost#0:1/copy @ 0x146011390] Non-monotonic DTS; previous: 1972391, current: 1966464; changing to 1972392. This may result in incorrect timestamps in the output file.\n",
      "[vost#0:0/copy @ 0x1460106b0] Non-monotonic DTS; previous: 525539, current: 524493; changing to 525540. This may result in incorrect timestamps in the output file.\n",
      "[aost#0:1/copy @ 0x146011390] Non-monotonic DTS; previous: 1972392, current: 1967488; changing to 1972393. This may result in incorrect timestamps in the output file.\n",
      "[aost#0:1/copy @ 0x146011390] Non-monotonic DTS; previous: 1972393, current: 1968512; changing to 1972394. This may result in incorrect timestamps in the output file.\n",
      "[vost#0:0/copy @ 0x1460106b0] Non-monotonic DTS; previous: 525540, current: 525005; changing to 525541. This may result in incorrect timestamps in the output file.\n",
      "[aost#0:1/copy @ 0x146011390] Non-monotonic DTS; previous: 1972394, current: 1969536; changing to 1972395. This may result in incorrect timestamps in the output file.\n",
      "[aost#0:1/copy @ 0x146011390] Non-monotonic DTS; previous: 1972395, current: 1970560; changing to 1972396. This may result in incorrect timestamps in the output file.\n",
      "[vost#0:0/copy @ 0x1460106b0] Non-monotonic DTS; previous: 525541, current: 525517; changing to 525542. This may result in incorrect timestamps in the output file.\n",
      "[aost#0:1/copy @ 0x146011390] Non-monotonic DTS; previous: 1972396, current: 1971584; changing to 1972397. This may result in incorrect timestamps in the output file.\n",
      "[mov,mp4,m4a,3gp,3g2,mj2 @ 0x146104480] Auto-inserting h264_mp4toannexb bitstream filter\n",
      "[mov,mp4,m4a,3gp,3g2,mj2 @ 0x144e076c0] Auto-inserting h264_mp4toannexb bitstream filter\n",
      "[vost#0:0/copy @ 0x1460106b0] Non-monotonic DTS; previous: 1038541, current: 1026253; changing to 1038542. This may result in incorrect timestamps in the output file.\n",
      "[aost#0:1/copy @ 0x146011390] Non-monotonic DTS; previous: 3895936, current: 3850112; changing to 3895937. This may result in incorrect timestamps in the output file.\n",
      "[vost#0:0/copy @ 0x1460106b0] Non-monotonic DTS; previous: 1038542, current: 1026765; changing to 1038543. This may result in incorrect timestamps in the output file.\n",
      "[aost#0:1/copy @ 0x146011390] Non-monotonic DTS; previous: 3895937, current: 3851136; changing to 3895938. This may result in incorrect timestamps in the output file.\n",
      "[aost#0:1/copy @ 0x146011390] Non-monotonic DTS; previous: 3895938, current: 3852160; changing to 3895939. This may result in incorrect timestamps in the output file.\n",
      "[vost#0:0/copy @ 0x1460106b0] Non-monotonic DTS; previous: 1038543, current: 1027277; changing to 1038544. This may result in incorrect timestamps in the output file.\n",
      "[aost#0:1/copy @ 0x146011390] Non-monotonic DTS; previous: 3895939, current: 3853184; changing to 3895940. This may result in incorrect timestamps in the output file.\n",
      "[vost#0:0/copy @ 0x1460106b0] Non-monotonic DTS; previous: 1038544, current: 1027789; changing to 1038545. This may result in incorrect timestamps in the output file.\n",
      "[aost#0:1/copy @ 0x146011390] Non-monotonic DTS; previous: 3895940, current: 3854208; changing to 3895941. This may result in incorrect timestamps in the output file.\n",
      "[aost#0:1/copy @ 0x146011390] Non-monotonic DTS; previous: 3895941, current: 3855232; changing to 3895942. This may result in incorrect timestamps in the output file.\n",
      "[vost#0:0/copy @ 0x1460106b0] Non-monotonic DTS; previous: 1038545, current: 1028301; changing to 1038546. This may result in incorrect timestamps in the output file.\n",
      "[aost#0:1/copy @ 0x146011390] Non-monotonic DTS; previous: 3895942, current: 3856256; changing to 3895943. This may result in incorrect timestamps in the output file.\n",
      "[aost#0:1/copy @ 0x146011390] Non-monotonic DTS; previous: 3895943, current: 3857280; changing to 3895944. This may result in incorrect timestamps in the output file.\n",
      "[vost#0:0/copy @ 0x1460106b0] Non-monotonic DTS; previous: 1038546, current: 1028813; changing to 1038547. This may result in incorrect timestamps in the output file.\n",
      "[aost#0:1/copy @ 0x146011390] Non-monotonic DTS; previous: 3895944, current: 3858304; changing to 3895945. This may result in incorrect timestamps in the output file.\n",
      "[aost#0:1/copy @ 0x146011390] Non-monotonic DTS; previous: 3895945, current: 3859328; changing to 3895946. This may result in incorrect timestamps in the output file.\n",
      "[vost#0:0/copy @ 0x1460106b0] Non-monotonic DTS; previous: 1038547, current: 1029325; changing to 1038548. This may result in incorrect timestamps in the output file.\n",
      "[aost#0:1/copy @ 0x146011390] Non-monotonic DTS; previous: 3895946, current: 3860352; changing to 3895947. This may result in incorrect timestamps in the output file.\n",
      "[aost#0:1/copy @ 0x146011390] Non-monotonic DTS; previous: 3895947, current: 3861376; changing to 3895948. This may result in incorrect timestamps in the output file.\n",
      "[vost#0:0/copy @ 0x1460106b0] Non-monotonic DTS; previous: 1038548, current: 1029837; changing to 1038549. This may result in incorrect timestamps in the output file.\n",
      "[aost#0:1/copy @ 0x146011390] Non-monotonic DTS; previous: 3895948, current: 3862400; changing to 3895949. This may result in incorrect timestamps in the output file.\n",
      "[aost#0:1/copy @ 0x146011390] Non-monotonic DTS; previous: 3895949, current: 3863424; changing to 3895950. This may result in incorrect timestamps in the output file.\n",
      "[vost#0:0/copy @ 0x1460106b0] Non-monotonic DTS; previous: 1038549, current: 1030349; changing to 1038550. This may result in incorrect timestamps in the output file.\n",
      "[aost#0:1/copy @ 0x146011390] Non-monotonic DTS; previous: 3895950, current: 3864448; changing to 3895951. This may result in incorrect timestamps in the output file.\n",
      "[aost#0:1/copy @ 0x146011390] Non-monotonic DTS; previous: 3895951, current: 3865472; changing to 3895952. This may result in incorrect timestamps in the output file.\n",
      "[vost#0:0/copy @ 0x1460106b0] Non-monotonic DTS; previous: 1038550, current: 1030861; changing to 1038551. This may result in incorrect timestamps in the output file.\n",
      "[aost#0:1/copy @ 0x146011390] Non-monotonic DTS; previous: 3895952, current: 3866496; changing to 3895953. This may result in incorrect timestamps in the output file.\n",
      "[aost#0:1/copy @ 0x146011390] Non-monotonic DTS; previous: 3895953, current: 3867520; changing to 3895954. This may result in incorrect timestamps in the output file.\n",
      "[vost#0:0/copy @ 0x1460106b0] Non-monotonic DTS; previous: 1038551, current: 1031373; changing to 1038552. This may result in incorrect timestamps in the output file.\n",
      "[aost#0:1/copy @ 0x146011390] Non-monotonic DTS; previous: 3895954, current: 3868544; changing to 3895955. This may result in incorrect timestamps in the output file.\n",
      "[vost#0:0/copy @ 0x1460106b0] Non-monotonic DTS; previous: 1038552, current: 1031885; changing to 1038553. This may result in incorrect timestamps in the output file.\n",
      "[aost#0:1/copy @ 0x146011390] Non-monotonic DTS; previous: 3895955, current: 3869568; changing to 3895956. This may result in incorrect timestamps in the output file.\n",
      "[aost#0:1/copy @ 0x146011390] Non-monotonic DTS; previous: 3895956, current: 3870592; changing to 3895957. This may result in incorrect timestamps in the output file.\n",
      "[vost#0:0/copy @ 0x1460106b0] Non-monotonic DTS; previous: 1038553, current: 1032397; changing to 1038554. This may result in incorrect timestamps in the output file.\n",
      "[aost#0:1/copy @ 0x146011390] Non-monotonic DTS; previous: 3895957, current: 3871616; changing to 3895958. This may result in incorrect timestamps in the output file.\n",
      "[aost#0:1/copy @ 0x146011390] Non-monotonic DTS; previous: 3895958, current: 3872640; changing to 3895959. This may result in incorrect timestamps in the output file.\n",
      "[vost#0:0/copy @ 0x1460106b0] Non-monotonic DTS; previous: 1038554, current: 1032909; changing to 1038555. This may result in incorrect timestamps in the output file.\n",
      "[aost#0:1/copy @ 0x146011390] Non-monotonic DTS; previous: 3895959, current: 3873664; changing to 3895960. This may result in incorrect timestamps in the output file.\n",
      "[aost#0:1/copy @ 0x146011390] Non-monotonic DTS; previous: 3895960, current: 3874688; changing to 3895961. This may result in incorrect timestamps in the output file.\n",
      "[vost#0:0/copy @ 0x1460106b0] Non-monotonic DTS; previous: 1038555, current: 1033421; changing to 1038556. This may result in incorrect timestamps in the output file.\n",
      "[aost#0:1/copy @ 0x146011390] Non-monotonic DTS; previous: 3895961, current: 3875712; changing to 3895962. This may result in incorrect timestamps in the output file.\n",
      "[aost#0:1/copy @ 0x146011390] Non-monotonic DTS; previous: 3895962, current: 3876736; changing to 3895963. This may result in incorrect timestamps in the output file.\n",
      "[vost#0:0/copy @ 0x1460106b0] Non-monotonic DTS; previous: 1038556, current: 1033933; changing to 1038557. This may result in incorrect timestamps in the output file.\n",
      "[aost#0:1/copy @ 0x146011390] Non-monotonic DTS; previous: 3895963, current: 3877760; changing to 3895964. This may result in incorrect timestamps in the output file.\n",
      "[aost#0:1/copy @ 0x146011390] Non-monotonic DTS; previous: 3895964, current: 3878784; changing to 3895965. This may result in incorrect timestamps in the output file.\n",
      "[vost#0:0/copy @ 0x1460106b0] Non-monotonic DTS; previous: 1038557, current: 1034445; changing to 1038558. This may result in incorrect timestamps in the output file.\n",
      "[aost#0:1/copy @ 0x146011390] Non-monotonic DTS; previous: 3895965, current: 3879808; changing to 3895966. This may result in incorrect timestamps in the output file.\n",
      "[aost#0:1/copy @ 0x146011390] Non-monotonic DTS; previous: 3895966, current: 3880832; changing to 3895967. This may result in incorrect timestamps in the output file.\n",
      "[vost#0:0/copy @ 0x1460106b0] Non-monotonic DTS; previous: 1038558, current: 1034957; changing to 1038559. This may result in incorrect timestamps in the output file.\n",
      "[aost#0:1/copy @ 0x146011390] Non-monotonic DTS; previous: 3895967, current: 3881856; changing to 3895968. This may result in incorrect timestamps in the output file.\n",
      "[aost#0:1/copy @ 0x146011390] Non-monotonic DTS; previous: 3895968, current: 3882880; changing to 3895969. This may result in incorrect timestamps in the output file.\n",
      "[vost#0:0/copy @ 0x1460106b0] Non-monotonic DTS; previous: 1038559, current: 1035469; changing to 1038560. This may result in incorrect timestamps in the output file.\n",
      "[aost#0:1/copy @ 0x146011390] Non-monotonic DTS; previous: 3895969, current: 3883904; changing to 3895970. This may result in incorrect timestamps in the output file.\n",
      "[vost#0:0/copy @ 0x1460106b0] Non-monotonic DTS; previous: 1038560, current: 1035981; changing to 1038561. This may result in incorrect timestamps in the output file.\n",
      "[aost#0:1/copy @ 0x146011390] Non-monotonic DTS; previous: 3895970, current: 3884928; changing to 3895971. This may result in incorrect timestamps in the output file.\n",
      "[aost#0:1/copy @ 0x146011390] Non-monotonic DTS; previous: 3895971, current: 3885952; changing to 3895972. This may result in incorrect timestamps in the output file.\n",
      "[vost#0:0/copy @ 0x1460106b0] Non-monotonic DTS; previous: 1038561, current: 1036493; changing to 1038562. This may result in incorrect timestamps in the output file.\n",
      "[aost#0:1/copy @ 0x146011390] Non-monotonic DTS; previous: 3895972, current: 3886976; changing to 3895973. This may result in incorrect timestamps in the output file.\n",
      "[aost#0:1/copy @ 0x146011390] Non-monotonic DTS; previous: 3895973, current: 3888000; changing to 3895974. This may result in incorrect timestamps in the output file.\n",
      "[vost#0:0/copy @ 0x1460106b0] Non-monotonic DTS; previous: 1038562, current: 1037005; changing to 1038563. This may result in incorrect timestamps in the output file.\n",
      "[aost#0:1/copy @ 0x146011390] Non-monotonic DTS; previous: 3895974, current: 3889024; changing to 3895975. This may result in incorrect timestamps in the output file.\n",
      "[aost#0:1/copy @ 0x146011390] Non-monotonic DTS; previous: 3895975, current: 3890048; changing to 3895976. This may result in incorrect timestamps in the output file.\n",
      "[vost#0:0/copy @ 0x1460106b0] Non-monotonic DTS; previous: 1038563, current: 1037517; changing to 1038564. This may result in incorrect timestamps in the output file.\n",
      "[aost#0:1/copy @ 0x146011390] Non-monotonic DTS; previous: 3895976, current: 3891072; changing to 3895977. This may result in incorrect timestamps in the output file.\n",
      "[aost#0:1/copy @ 0x146011390] Non-monotonic DTS; previous: 3895977, current: 3892096; changing to 3895978. This may result in incorrect timestamps in the output file.\n",
      "[vost#0:0/copy @ 0x1460106b0] Non-monotonic DTS; previous: 1038564, current: 1038029; changing to 1038565. This may result in incorrect timestamps in the output file.\n",
      "[aost#0:1/copy @ 0x146011390] Non-monotonic DTS; previous: 3895978, current: 3893120; changing to 3895979. This may result in incorrect timestamps in the output file.\n",
      "[aost#0:1/copy @ 0x146011390] Non-monotonic DTS; previous: 3895979, current: 3894144; changing to 3895980. This may result in incorrect timestamps in the output file.\n",
      "[vost#0:0/copy @ 0x1460106b0] Non-monotonic DTS; previous: 1038565, current: 1038541; changing to 1038566. This may result in incorrect timestamps in the output file.\n",
      "[aost#0:1/copy @ 0x146011390] Non-monotonic DTS; previous: 3895980, current: 3895168; changing to 3895981. This may result in incorrect timestamps in the output file.\n",
      "[mov,mp4,m4a,3gp,3g2,mj2 @ 0x146012b10] Auto-inserting h264_mp4toannexb bitstream filter\n",
      "[vost#0:0/copy @ 0x1460106b0] Non-monotonic DTS; previous: 1295053, current: 1282765; changing to 1295054. This may result in incorrect timestamps in the output file.\n",
      "[aost#0:1/copy @ 0x146011390] Non-monotonic DTS; previous: 4857728, current: 4812032; changing to 4857729. This may result in incorrect timestamps in the output file.\n",
      "[vost#0:0/copy @ 0x1460106b0] Non-monotonic DTS; previous: 1295054, current: 1283277; changing to 1295055. This may result in incorrect timestamps in the output file.\n",
      "[aost#0:1/copy @ 0x146011390] Non-monotonic DTS; previous: 4857729, current: 4813056; changing to 4857730. This may result in incorrect timestamps in the output file.\n",
      "[aost#0:1/copy @ 0x146011390] Non-monotonic DTS; previous: 4857730, current: 4814080; changing to 4857731. This may result in incorrect timestamps in the output file.\n",
      "[vost#0:0/copy @ 0x1460106b0] Non-monotonic DTS; previous: 1295055, current: 1283789; changing to 1295056. This may result in incorrect timestamps in the output file.\n",
      "[aost#0:1/copy @ 0x146011390] Non-monotonic DTS; previous: 4857731, current: 4815104; changing to 4857732. This may result in incorrect timestamps in the output file.\n",
      "[vost#0:0/copy @ 0x1460106b0] Non-monotonic DTS; previous: 1295056, current: 1284301; changing to 1295057. This may result in incorrect timestamps in the output file.\n",
      "[aost#0:1/copy @ 0x146011390] Non-monotonic DTS; previous: 4857732, current: 4816128; changing to 4857733. This may result in incorrect timestamps in the output file.\n",
      "[aost#0:1/copy @ 0x146011390] Non-monotonic DTS; previous: 4857733, current: 4817152; changing to 4857734. This may result in incorrect timestamps in the output file.\n",
      "[vost#0:0/copy @ 0x1460106b0] Non-monotonic DTS; previous: 1295057, current: 1284813; changing to 1295058. This may result in incorrect timestamps in the output file.\n",
      "[aost#0:1/copy @ 0x146011390] Non-monotonic DTS; previous: 4857734, current: 4818176; changing to 4857735. This may result in incorrect timestamps in the output file.\n",
      "[aost#0:1/copy @ 0x146011390] Non-monotonic DTS; previous: 4857735, current: 4819200; changing to 4857736. This may result in incorrect timestamps in the output file.\n",
      "[vost#0:0/copy @ 0x1460106b0] Non-monotonic DTS; previous: 1295058, current: 1285325; changing to 1295059. This may result in incorrect timestamps in the output file.\n",
      "[aost#0:1/copy @ 0x146011390] Non-monotonic DTS; previous: 4857736, current: 4820224; changing to 4857737. This may result in incorrect timestamps in the output file.\n",
      "[aost#0:1/copy @ 0x146011390] Non-monotonic DTS; previous: 4857737, current: 4821248; changing to 4857738. This may result in incorrect timestamps in the output file.\n",
      "[vost#0:0/copy @ 0x1460106b0] Non-monotonic DTS; previous: 1295059, current: 1285837; changing to 1295060. This may result in incorrect timestamps in the output file.\n",
      "[aost#0:1/copy @ 0x146011390] Non-monotonic DTS; previous: 4857738, current: 4822272; changing to 4857739. This may result in incorrect timestamps in the output file.\n",
      "[aost#0:1/copy @ 0x146011390] Non-monotonic DTS; previous: 4857739, current: 4823296; changing to 4857740. This may result in incorrect timestamps in the output file.\n",
      "[vost#0:0/copy @ 0x1460106b0] Non-monotonic DTS; previous: 1295060, current: 1286349; changing to 1295061. This may result in incorrect timestamps in the output file.\n",
      "[aost#0:1/copy @ 0x146011390] Non-monotonic DTS; previous: 4857740, current: 4824320; changing to 4857741. This may result in incorrect timestamps in the output file.\n",
      "[aost#0:1/copy @ 0x146011390] Non-monotonic DTS; previous: 4857741, current: 4825344; changing to 4857742. This may result in incorrect timestamps in the output file.\n",
      "[vost#0:0/copy @ 0x1460106b0] Non-monotonic DTS; previous: 1295061, current: 1286861; changing to 1295062. This may result in incorrect timestamps in the output file.\n",
      "[aost#0:1/copy @ 0x146011390] Non-monotonic DTS; previous: 4857742, current: 4826368; changing to 4857743. This may result in incorrect timestamps in the output file.\n",
      "[aost#0:1/copy @ 0x146011390] Non-monotonic DTS; previous: 4857743, current: 4827392; changing to 4857744. This may result in incorrect timestamps in the output file.\n",
      "[vost#0:0/copy @ 0x1460106b0] Non-monotonic DTS; previous: 1295062, current: 1287373; changing to 1295063. This may result in incorrect timestamps in the output file.\n",
      "[aost#0:1/copy @ 0x146011390] Non-monotonic DTS; previous: 4857744, current: 4828416; changing to 4857745. This may result in incorrect timestamps in the output file.\n",
      "[aost#0:1/copy @ 0x146011390] Non-monotonic DTS; previous: 4857745, current: 4829440; changing to 4857746. This may result in incorrect timestamps in the output file.\n",
      "[vost#0:0/copy @ 0x1460106b0] Non-monotonic DTS; previous: 1295063, current: 1287885; changing to 1295064. This may result in incorrect timestamps in the output file.\n",
      "[aost#0:1/copy @ 0x146011390] Non-monotonic DTS; previous: 4857746, current: 4830464; changing to 4857747. This may result in incorrect timestamps in the output file.\n",
      "[vost#0:0/copy @ 0x1460106b0] Non-monotonic DTS; previous: 1295064, current: 1288397; changing to 1295065. This may result in incorrect timestamps in the output file.\n",
      "[aost#0:1/copy @ 0x146011390] Non-monotonic DTS; previous: 4857747, current: 4831488; changing to 4857748. This may result in incorrect timestamps in the output file.\n",
      "[aost#0:1/copy @ 0x146011390] Non-monotonic DTS; previous: 4857748, current: 4832512; changing to 4857749. This may result in incorrect timestamps in the output file.\n",
      "[vost#0:0/copy @ 0x1460106b0] Non-monotonic DTS; previous: 1295065, current: 1288909; changing to 1295066. This may result in incorrect timestamps in the output file.\n",
      "[aost#0:1/copy @ 0x146011390] Non-monotonic DTS; previous: 4857749, current: 4833536; changing to 4857750. This may result in incorrect timestamps in the output file.\n",
      "[aost#0:1/copy @ 0x146011390] Non-monotonic DTS; previous: 4857750, current: 4834560; changing to 4857751. This may result in incorrect timestamps in the output file.\n",
      "[vost#0:0/copy @ 0x1460106b0] Non-monotonic DTS; previous: 1295066, current: 1289421; changing to 1295067. This may result in incorrect timestamps in the output file.\n",
      "[aost#0:1/copy @ 0x146011390] Non-monotonic DTS; previous: 4857751, current: 4835584; changing to 4857752. This may result in incorrect timestamps in the output file.\n",
      "[aost#0:1/copy @ 0x146011390] Non-monotonic DTS; previous: 4857752, current: 4836608; changing to 4857753. This may result in incorrect timestamps in the output file.\n",
      "[vost#0:0/copy @ 0x1460106b0] Non-monotonic DTS; previous: 1295067, current: 1289933; changing to 1295068. This may result in incorrect timestamps in the output file.\n",
      "[aost#0:1/copy @ 0x146011390] Non-monotonic DTS; previous: 4857753, current: 4837632; changing to 4857754. This may result in incorrect timestamps in the output file.\n",
      "[aost#0:1/copy @ 0x146011390] Non-monotonic DTS; previous: 4857754, current: 4838656; changing to 4857755. This may result in incorrect timestamps in the output file.\n",
      "[vost#0:0/copy @ 0x1460106b0] Non-monotonic DTS; previous: 1295068, current: 1290445; changing to 1295069. This may result in incorrect timestamps in the output file.\n",
      "[aost#0:1/copy @ 0x146011390] Non-monotonic DTS; previous: 4857755, current: 4839680; changing to 4857756. This may result in incorrect timestamps in the output file.\n",
      "[aost#0:1/copy @ 0x146011390] Non-monotonic DTS; previous: 4857756, current: 4840704; changing to 4857757. This may result in incorrect timestamps in the output file.\n",
      "[vost#0:0/copy @ 0x1460106b0] Non-monotonic DTS; previous: 1295069, current: 1290957; changing to 1295070. This may result in incorrect timestamps in the output file.\n",
      "[aost#0:1/copy @ 0x146011390] Non-monotonic DTS; previous: 4857757, current: 4841728; changing to 4857758. This may result in incorrect timestamps in the output file.\n",
      "[aost#0:1/copy @ 0x146011390] Non-monotonic DTS; previous: 4857758, current: 4842752; changing to 4857759. This may result in incorrect timestamps in the output file.\n",
      "[vost#0:0/copy @ 0x1460106b0] Non-monotonic DTS; previous: 1295070, current: 1291469; changing to 1295071. This may result in incorrect timestamps in the output file.\n",
      "[aost#0:1/copy @ 0x146011390] Non-monotonic DTS; previous: 4857759, current: 4843776; changing to 4857760. This may result in incorrect timestamps in the output file.\n",
      "[aost#0:1/copy @ 0x146011390] Non-monotonic DTS; previous: 4857760, current: 4844800; changing to 4857761. This may result in incorrect timestamps in the output file.\n",
      "[vost#0:0/copy @ 0x1460106b0] Non-monotonic DTS; previous: 1295071, current: 1291981; changing to 1295072. This may result in incorrect timestamps in the output file.\n",
      "[aost#0:1/copy @ 0x146011390] Non-monotonic DTS; previous: 4857761, current: 4845824; changing to 4857762. This may result in incorrect timestamps in the output file.\n",
      "[vost#0:0/copy @ 0x1460106b0] Non-monotonic DTS; previous: 1295072, current: 1292493; changing to 1295073. This may result in incorrect timestamps in the output file.\n",
      "[aost#0:1/copy @ 0x146011390] Non-monotonic DTS; previous: 4857762, current: 4846848; changing to 4857763. This may result in incorrect timestamps in the output file.\n",
      "[aost#0:1/copy @ 0x146011390] Non-monotonic DTS; previous: 4857763, current: 4847872; changing to 4857764. This may result in incorrect timestamps in the output file.\n",
      "[vost#0:0/copy @ 0x1460106b0] Non-monotonic DTS; previous: 1295073, current: 1293005; changing to 1295074. This may result in incorrect timestamps in the output file.\n",
      "[aost#0:1/copy @ 0x146011390] Non-monotonic DTS; previous: 4857764, current: 4848896; changing to 4857765. This may result in incorrect timestamps in the output file.\n",
      "[aost#0:1/copy @ 0x146011390] Non-monotonic DTS; previous: 4857765, current: 4849920; changing to 4857766. This may result in incorrect timestamps in the output file.\n",
      "[vost#0:0/copy @ 0x1460106b0] Non-monotonic DTS; previous: 1295074, current: 1293517; changing to 1295075. This may result in incorrect timestamps in the output file.\n",
      "[aost#0:1/copy @ 0x146011390] Non-monotonic DTS; previous: 4857766, current: 4850944; changing to 4857767. This may result in incorrect timestamps in the output file.\n",
      "[aost#0:1/copy @ 0x146011390] Non-monotonic DTS; previous: 4857767, current: 4851968; changing to 4857768. This may result in incorrect timestamps in the output file.\n",
      "[vost#0:0/copy @ 0x1460106b0] Non-monotonic DTS; previous: 1295075, current: 1294029; changing to 1295076. This may result in incorrect timestamps in the output file.\n",
      "[aost#0:1/copy @ 0x146011390] Non-monotonic DTS; previous: 4857768, current: 4852992; changing to 4857769. This may result in incorrect timestamps in the output file.\n",
      "[aost#0:1/copy @ 0x146011390] Non-monotonic DTS; previous: 4857769, current: 4854016; changing to 4857770. This may result in incorrect timestamps in the output file.\n",
      "[vost#0:0/copy @ 0x1460106b0] Non-monotonic DTS; previous: 1295076, current: 1294541; changing to 1295077. This may result in incorrect timestamps in the output file.\n",
      "[aost#0:1/copy @ 0x146011390] Non-monotonic DTS; previous: 4857770, current: 4855040; changing to 4857771. This may result in incorrect timestamps in the output file.\n",
      "[aost#0:1/copy @ 0x146011390] Non-monotonic DTS; previous: 4857771, current: 4856064; changing to 4857772. This may result in incorrect timestamps in the output file.\n",
      "[vost#0:0/copy @ 0x1460106b0] Non-monotonic DTS; previous: 1295077, current: 1295053; changing to 1295078. This may result in incorrect timestamps in the output file.\n",
      "[aost#0:1/copy @ 0x146011390] Non-monotonic DTS; previous: 4857772, current: 4857088; changing to 4857773. This may result in incorrect timestamps in the output file.\n",
      "[out#0/mp4 @ 0x14600fc80] video:9498KiB audio:1941KiB subtitle:0KiB other streams:0KiB global headers:0KiB muxing overhead: 0.743175%\n",
      "frame= 3106 fps=0.0 q=-1.0 Lsize=   11524KiB time=00:02:01.25 bitrate= 778.6kbits/s speed=2.7e+03x    \n"
     ]
    }
   ],
   "source": [
    "# Преобразование времени в секунды\n",
    "def time_to_seconds(time_str):\n",
    "    h, m, s = map(int, time_str.split(':'))\n",
    "    return h * 3600 + m * 60 + s\n",
    "\n",
    "# Функция для создания файла с списком клипов для concat\n",
    "\n",
    "\n",
    "def create_list_file(clips, list_path=\"clips_list.txt\"):\n",
    "    with open(list_path, \"w\") as f:\n",
    "        for i, (start, end) in enumerate(clips):\n",
    "            start_sec = time_to_seconds(start)\n",
    "            end_sec = time_to_seconds(end)\n",
    "            duration = end_sec - start_sec\n",
    "            clip_name = f\"clip_{i}.mp4\"\n",
    "            # Вырезаем отдельный клип\n",
    "            subprocess.run([\n",
    "                \"ffmpeg\",\n",
    "                \"-ss\", str(start_sec),\n",
    "                \"-to\", str(end_sec),\n",
    "                \"-i\", input_video_path,\n",
    "                \"-c\", \"copy\",\n",
    "                clip_name,\n",
    "                \"-y\"\n",
    "            ])\n",
    "            f.write(f\"file '{clip_name}'\\n\")\n",
    "    return list_path\n",
    "\n",
    "\n",
    "# Путь к исходному видео\n",
    "input_video_path = f\"./data/vids/{file_name}.mp4\"\n",
    "output_video_path = f\"./data/result/{file_name}_final_recap.mp4\"\n",
    "\n",
    "# Создаем файл со списком клипов\n",
    "list_file = \"clips_list.txt\"\n",
    "create_list_file(clips_times, list_file)\n",
    "\n",
    "# Склеиваем клипы\n",
    "subprocess.run([\n",
    "    \"ffmpeg\",\n",
    "    \"-f\", \"concat\",\n",
    "    \"-safe\", \"0\",\n",
    "    \"-i\", list_file,\n",
    "    \"-c\", \"copy\",\n",
    "    output_video_path,\n",
    "    \"-y\"\n",
    "])\n",
    "\n",
    "# Очищаем временные файлы\n",
    "for i in range(len(clips_times)):\n",
    "    os.remove(f\"clip_{i}.mp4\")\n",
    "os.remove(list_file)\n",
    "\n",
    "print(f\"Видео успешно сохранено: {output_video_path}\")"
   ]
  },
  {
   "cell_type": "code",
   "execution_count": null,
   "id": "e9c2cde4",
   "metadata": {},
   "outputs": [],
   "source": []
  },
  {
   "cell_type": "code",
   "execution_count": null,
   "id": "f0d58114",
   "metadata": {},
   "outputs": [],
   "source": []
  }
 ],
 "metadata": {
  "kernelspec": {
   "display_name": "dlenv",
   "language": "python",
   "name": "python3"
  },
  "language_info": {
   "codemirror_mode": {
    "name": "ipython",
    "version": 3
   },
   "file_extension": ".py",
   "mimetype": "text/x-python",
   "name": "python",
   "nbconvert_exporter": "python",
   "pygments_lexer": "ipython3",
   "version": "3.11.11"
  }
 },
 "nbformat": 4,
 "nbformat_minor": 5
}
